<?xml version="1.0" encoding="UTF-8"?>
<svg id="Layer_1" xmlns="http://www.w3.org/2000/svg" version="1.1" viewBox="0 0 100 45.62">
  <!-- Generator: Adobe Illustrator 29.8.1, SVG Export Plug-In . SVG Version: 2.1.1 Build 2)  -->
  <defs>
    <style>
      .st0 {
        fill: #28348a;
      }
    </style>
  </defs>
  <path class="st0" d="M99.71,27.48c-.11-.29-.16-.56-.15-.84,0-.26.1-.49.24-.9.06-.2.13-.5.07-.82-.13-.73-.82-1.19-1.27-1.56-12.13-9.79-25.2-14.23-40-14.46-2.56-2.57-5.24-4.93-8.34-6.88-1.48-.89-3.15-1.75-4.92-1.97-1.3-.11-2.6-.05-3.9.4-2.36.8-3.77,2.81-5.73,4.07-1.95,1.15-3.97,2.15-5.84,3.47-2.76,1.88-6.81,5.43-4.56,8.88-1.74.9-3.44,1.87-5.1,2.88,0,0-.5.29-.5.29-1.05.66-2.32.8-3.52.5-4.59-1.28-8.26-6.9-11.63-10.15-.86-.86-2.43-2.2-3.56-.83-.11.15-.17.27-.22.39-.28.73-.49,1.49-.62,2.27-.75,4.22,1.35,7.9,3.64,11.17.38.6.83,1.23,1.05,1.88.04.13.07.25.06.37-.1.47-.45.91-.72,1.35-3.14,4.25-5.67,8.71-3.1,14.04,0,0,.14.28.14.28.11.2.22.4.43.56.22.2.59.36.9.38.32.02.56-.04.74-.1.77-.3,1.26-.82,1.76-1.32.81-.84,1.53-1.76,2.28-2.63,3.04-3.57,7.16-8.82,12.44-7,4.6,1.68,9.01,3.79,13.54,5.65.11.98.38,1.94.98,2.75.47.59,1.06,1.03,1.67,1.43,1.59,1.03,3.34,1.72,5.12,2.31,1.85.56,3.74,1.26,5.71.99,1.82-.21,3.55-1.2,4.72-2.63,3.97.42,7.99.46,12.11.16-.17.5-.24,1.04-.17,1.59.16,1.38,1.55,2.16,2.83,2.18,2.38.09,4.49-1.23,6.24-2.69,1.02-.86,1.94-1.76,2.84-2.75,8.64-1.92,16.92-5.39,24.12-10.58.77-.68.57-1.35.24-2.11Z"/>
</svg>