<?xml version="1.0" encoding="UTF-8"?>
<svg id="a" data-name="Ebene 1" xmlns="http://www.w3.org/2000/svg" width="1200" height="1200" viewBox="0 0 1200 1200">
  <circle cx="600" cy="600" r="297.157" fill="none" stroke="#fff" stroke-miterlimit="10" stroke-width="5"/>
  <circle cx="600" cy="600" r="316.998" fill="none" stroke="#fff" stroke-miterlimit="10" stroke-width="5"/>
  <g>
    <path d="M460.947,634.518c30.903,13.165,63.04,23.519,95.604,31.548,19.281,4.787,38.83,8.929,58.599,10.612,13.154,1.132,26.45,1.27,39.66.766,61.677-2.33,124.347-15.926,176.556-49.85.718-.461,1.283-.848,1.761-1.273.474-.408.733-.808.734-.857-.054-.973-.671-1.885-1.05-3.09-.691-1.842-1.087-3.976-1.019-6.07.015-2.211.874-4.384,1.287-5.698.202-.677.208-1.001.159-1.198-.663-1.615-2.542-2.762-4.02-3.882,0,0-4.104-3.026-4.104-3.026-39.422-28.628-86.05-46.315-134.235-52.728-27.969-3.67-56.465-4.13-84.565-1.689-35.283,2.82-70.496,8.911-103.781,21.374-13.337,5.06-26.502,10.796-38.893,17.911-3.182,1.955-6.626,3.957-10.332,4.782-23.563,5.354-50.525-21.992-65.773-37.289-3.966-3.83-7.679-8.361-12.088-11.273.772.307,2.6-.037,3.376-.887.19-.153.372-.382.478-.513.247-.347.324-.52.38-.67-2.348,5.815-3.741,11.994-3.83,18.285-.259,13.755,5.818,26.634,12.497,38.738,2.125,4.161,4.715,8.405,4.994,13.293-.141,3.391-1.961,6.135-3.394,8.893-3.599,6.358-7.133,12.468-9.683,18.906-5.711,13.61-6.137,28.635.945,41.432-.125-.161-.19-.301-.45-.513-.567-.596-2.08-.965-2.687-.685,2.855-1.64,5.457-4.844,7.925-7.341,18.066-19.507,44.829-50.186,74.95-38.006h0ZM459.568,638.012c-24.987-8.62-44.476,16.254-58.875,33.149-3.516,4.142-6.948,8.467-10.78,12.461-2.361,2.376-4.695,4.847-8.337,6.266-.867.302-2.022.6-3.515.489-1.483-.075-3.204-.838-4.262-1.797-.961-.755-1.481-1.7-2.018-2.629,0,0-.666-1.327-.666-1.327-12.156-25.203-.198-46.32,14.679-66.452,1.267-2.042,2.967-4.149,3.421-6.368.046-.605-.093-1.176-.269-1.774-1.037-3.08-3.161-6.076-4.954-8.903-10.873-15.471-20.784-32.93-17.24-52.884.612-3.677,1.621-7.267,2.944-10.744.235-.562.503-1.148,1.032-1.846,5.372-6.484,12.799-.125,16.865,3.952,15.923,15.379,33.31,41.988,55.031,48.034,5.668,1.455,11.678.757,16.651-2.354,0,0,2.345-1.369,2.345-1.369,43.488-26.574,92.43-45.524,143.463-50.121,86.155-6.918,159.976,12.548,227.642,67.171,2.111,1.745,5.407,3.942,6.008,7.399.289,1.497-.037,2.916-.341,3.864-.656,1.926-1.087,3.003-1.123,4.252-.031,1.336.202,2.634.72,3.998,1.56,3.574,2.536,6.781-1.126,9.978-46.997,33.878-103.64,52.275-161.178,57.315-49.118,4.763-95.201-.42-141.198-18.677-25.325-9.711-49.475-21.811-74.919-31.083h0Z" fill="#fff" stroke-width="0"/>
    <path d="M778.594,596.005c-.453,9.243-11.208,14.105-18.349,7.957-4.868-3.956-5.256-12.159-.706-16.62,7.519-7.758,19.681-1.739,19.055,8.663h0ZM774.403,596.005c-.616-6.145-10.171-5.778-10.915,0-.707,7.912,11.252,7.812,10.915,0h0Z" fill="#fff" stroke-width="0"/>
    <path d="M740.841,582.174c-5.683,9.137-8.325,20.155-8.705,30.864-.095,1.156.013,2.976.03,4.147-.036,2.386.447,5.909.689,8.304.355,1.987.805,4.176,1.182,6.173.472,1.923,1.455,5.175,1.992,7.094.698,1.839,1.926,5.068,2.628,6.924,0,0-2.376,1.131-2.376,1.131-.652-1.369-2.176-4.62-2.797-5.929-.646-1.244-1.852-4.768-2.381-6.134-.49-1.153-.994-2.964-1.322-4.197-1.005-3.284-1.828-7.401-2.351-10.803-.113-1.103-.349-3.321-.461-4.424-.54-6.634-.159-13.534,1.133-20.066,1.202-6.015,3.036-11.962,5.995-17.386,0,0,6.743,4.304,6.743,4.304h0Z" fill="#fff" stroke-width="0"/>
    <path d="M630.324,568.837c-2.797,3.198-3.467,8.208-2.661,12.425.127.686.327,1.36.49,2.057l-2.403,1.144c-3.822-5.742-5.071-13.491-2.17-19.931,0,0,6.743,4.304,6.743,4.304h0Z" fill="#fff" stroke-width="0"/>
    <path d="M598.891,568.837c-2.798,3.198-3.467,8.208-2.661,12.425.126.686.327,1.36.49,2.057l-2.403,1.144c-3.822-5.742-5.071-13.491-2.17-19.931,0,0,6.743,4.304,6.743,4.304h0Z" fill="#fff" stroke-width="0"/>
    <path d="M567.457,568.837c-2.798,3.198-3.467,8.208-2.661,12.425.127.686.327,1.36.491,2.057l-2.403,1.144c-3.822-5.742-5.071-13.49-2.17-19.931,0,0,6.743,4.304,6.743,4.304h0Z" fill="#fff" stroke-width="0"/>
    <path d="M661.421,568.837c-2.798,3.198-3.467,8.208-2.661,12.425.126.686.327,1.36.49,2.057l-2.403,1.144c-3.822-5.742-5.071-13.491-2.17-19.931,0,0,6.743,4.304,6.743,4.304h0Z" fill="#fff" stroke-width="0"/>
    <path d="M614.775,598.517c-2.798,3.198-3.467,8.208-2.661,12.425.126.686.327,1.36.49,2.057l-2.403,1.144c-3.822-5.742-5.071-13.491-2.17-19.931,0,0,6.743,4.304,6.743,4.304h0Z" fill="#fff" stroke-width="0"/>
    <path d="M583.342,598.517c-2.798,3.198-3.467,8.208-2.661,12.425.127.686.327,1.36.491,2.057l-2.403,1.144c-.401-.68-.844-1.354-1.218-2.069-2.847-5.381-3.506-12.196-.953-17.861,0,0,6.743,4.304,6.743,4.304h0Z" fill="#fff" stroke-width="0"/>
    <path d="M551.909,598.517c-2.797,3.198-3.467,8.208-2.661,12.425.127.686.327,1.36.49,2.057l-2.403,1.144c-3.822-5.742-5.071-13.491-2.17-19.931,0,0,6.743,4.304,6.743,4.304h0Z" fill="#fff" stroke-width="0"/>
    <path d="M645.872,598.517c-2.797,3.198-3.467,8.208-2.661,12.425.127.686.327,1.36.491,2.057l-2.403,1.144c-.401-.68-.844-1.354-1.218-2.069-2.847-5.381-3.506-12.196-.953-17.861,0,0,6.743,4.304,6.743,4.304h0Z" fill="#fff" stroke-width="0"/>
    <path d="M630.324,628.198c-2.797,3.198-3.467,8.208-2.661,12.425.127.686.327,1.36.49,2.057l-2.403,1.144c-3.822-5.742-5.071-13.491-2.17-19.931,0,0,6.743,4.304,6.743,4.304h0Z" fill="#fff" stroke-width="0"/>
    <path d="M661.421,628.198c-2.798,3.197-3.467,8.208-2.661,12.425.126.686.327,1.36.49,2.057l-2.403,1.144c-3.822-5.742-5.071-13.491-2.17-19.931,0,0,6.743,4.304,6.743,4.304h0Z" fill="#fff" stroke-width="0"/>
    <path d="M632.292,545.132c-11.884-13.61-36.79-39.725-54.615-42.499-15.187-1.788-20.561,5.105-31.99,13.49-3.667,2.644-7.743,4.936-11.895,6.776-7.692,3.531-15.22,7.283-22.362,11.602-9.016,5.71-22.111,14.228-23.608,25.418-.415,3.556,1.001,7.127,3.342,10.243l-3.38,2.779c-14.825-17.126,5.81-35.335,19.57-44.709,8.834-6.284,18.422-11.001,27.64-16.439,9.277-5.969,15.932-15.513,27.124-19.287,6.168-2.105,12.294-2.424,18.461-1.882,8.399,1.028,16.292,5.084,23.297,9.306,15.282,9.593,28.367,21.257,40.92,34.004,0,0-12.503,11.198-12.503,11.198h0Z" fill="#fff" stroke-width="0"/>
    <path d="M673.528,682.147c-8.73,14.701-.227,22.98,14.982,16.531,11.403-5.272,20.264-16.155,27.771-26.091,0,0,7.992,6.206,7.992,6.206-4.718,5.404-9.573,10.205-15.023,14.795-8.275,6.917-18.276,13.191-29.547,12.745-6.05-.112-12.653-3.795-13.4-10.32-.765-5.715,1.798-10.976,5.037-15.453,0,0,2.188,1.587,2.188,1.587h0Z" fill="#fff" stroke-width="0"/>
    <path d="M612.267,684.271c-5.318,8.631-14.763,14.748-24.804,15.929-9.33,1.254-18.266-2.023-27.036-4.688-8.414-2.81-16.695-6.064-24.213-10.935-2.889-1.913-5.678-4.009-7.92-6.787-3.531-4.76-4.673-10.63-4.931-16.411,0,0,3.098-.131,3.098-.131.767,5.879,2.422,12.057,7.292,15.692,8.312,6.214,18.632,9.254,28.607,11.856,11.406,2.67,23.331,6.045,33.523-1.804,2.729-2.082,5.231-4.819,6.802-7.798,0,0,9.583,5.077,9.583,5.077h0Z" fill="#fff" stroke-width="0"/>
  </g>
</svg>