<?xml version="1.0" encoding="utf-8"?>
<!-- Generator: Adobe Illustrator 28.2.0, SVG Export Plug-In . SVG Version: 6.00 Build 0)  -->
<svg version="1.1" id="Ebene_1" xmlns="http://www.w3.org/2000/svg" xmlns:xlink="http://www.w3.org/1999/xlink" x="0px" y="0px"
	 width="512px" height="512px" viewBox="0 0 512 512" style="enable-background:new 0 0 512 512;" xml:space="preserve">
<style type="text/css">
	.st0{fill:#27348B;}
</style>
<g>
	<circle class="st0" cx="256" cy="256" r="52.5"/>
	<path class="st0" d="M256,6C117.9,6,6,117.9,6,256s111.9,250,250,250s250-111.9,250-250S394.1,6,256,6z M410.5,319.5
		c-1.2,23.8-7.9,47.2-25.2,64.3c-17.5,17.3-41,23.7-65,24.9H191.8c-24-1.2-47.5-7.6-65-24.9c-17.3-17.1-24-40.6-25.2-64.3v-127
		c1.2-23.8,7.9-47.2,25.2-64.3c17.5-17.3,41-23.7,65-24.9h128.4c24,1.2,47.5,7.6,65,24.9c17.3,17.1,24,40.6,25.2,64.3L410.5,319.5z"
		/>
	<path class="st0" d="M318.6,132.1c-31.3-0.9-93.9-0.9-125.2,0c-16.3,0.4-34.7,4.5-46.3,16.9c-12.1,12.9-16.6,28.4-17.1,45.8
		c-0.8,30.6,0,122.3,0,122.3c0.5,17.4,5,33,17.1,45.8c11.6,12.4,30.1,16.4,46.3,16.9c31.3,0.9,93.9,0.9,125.2,0
		c16.3-0.4,34.7-4.5,46.3-16.9c12.1-12.9,16.6-28.4,17.1-45.8V194.9c-0.5-17.4-5-33-17.1-45.8C353.3,136.6,334.9,132.6,318.6,132.1
		L318.6,132.1z M256,337.4c-44.9,0-81.4-36.4-81.4-81.4s36.4-81.4,81.4-81.4s81.4,36.4,81.4,81.4l0,0
		C337.4,300.9,300.9,337.4,256,337.4z M337.7,191.4c-9,0-16.3-7.3-16.3-16.3s7.3-16.3,16.3-16.3s16.3,7.3,16.3,16.3
		C354,184.1,346.7,191.4,337.7,191.4L337.7,191.4z"/>
</g>
</svg>
