<?xml version="1.0" encoding="utf-8"?>
<!-- Generator: Adobe Illustrator 28.2.0, SVG Export Plug-In . SVG Version: 6.00 Build 0)  -->
<svg version="1.1"
	 id="Ebene_1" image-rendering="optimizeQuality" shape-rendering="geometricPrecision" text-rendering="geometricPrecision"
	 xmlns="http://www.w3.org/2000/svg" xmlns:xlink="http://www.w3.org/1999/xlink" x="0px" y="0px" width="512px" height="512px"
	 viewBox="0 0 512 512" style="enable-background:new 0 0 512 512;" xml:space="preserve">
<style type="text/css">
	.st0{fill-rule:evenodd;clip-rule:evenodd;fill:#27348B;}
</style>
<g id="图层_x0020_1">
	<path class="st0" d="M256,512C114.6,512,0,397.4,0,256S114.6,0,256,0s256,114.6,256,256S397.4,512,256,512z M256,89.5
		c70,0,126.8,56.8,126.8,126.8S256,422.5,256,422.5S129.2,286.3,129.2,216.3S186,89.5,256,89.5z M256,165.9
		c26.6,0,48.1,21.5,48.1,48.1s-21.5,48.1-48.1,48.1s-48.1-21.5-48.1-48.1S229.4,165.9,256,165.9z"/>
</g>
</svg>
