<?xml version="1.0" encoding="UTF-8"?>
<svg id="a" data-name="Ebene 1" xmlns="http://www.w3.org/2000/svg" width="1200" height="1200" viewBox="0 0 1200 1200">
  <path d="M108.954,981.146v-281.246c0-66.282,12.986-130.592,38.597-191.143,24.733-58.476,60.137-110.988,105.228-156.079,45.09-45.09,97.603-80.494,156.078-105.227,60.552-25.611,124.861-38.597,191.144-38.597s130.592,12.986,191.144,38.597c58.476,24.733,110.988,60.136,156.078,105.227,45.091,45.09,80.494,97.603,105.228,156.079,25.61,60.552,38.597,124.861,38.597,191.143v281.246H108.954Z" fill="#27348b" stroke="#27348b" stroke-miterlimit="10" stroke-width="5"/>
  <g>
    <path d="M999.532,774.896c-6.269,0-10.911-4.357-15.826-8.968-5.495-5.157-11.176-10.489-19.767-10.489-11.002,0-15.825,5.194-20.489,10.216-4.18,4.501-8.503,9.157-17.008,9.157-8.828,0-13.18-4.833-17.388-9.506-4.503-5.001-8.757-9.725-18.354-9.725-13.41,0-23.016,11.664-23.104,11.787h0c.388-2.725,1.66-6.473,3.028-8.662,2.437-3.9,9.233-13.753,19.757-13.753,6.448,0,11.21,4.368,16.253,8.993,5.54,5.081,11.269,10.335,19.808,10.335,9.484,0,13.87-4.592,18.513-9.453,4.571-4.785,9.297-9.733,18.984-9.733,7.095,0,12.197,4.774,17.132,9.391,5.192,4.857,10.56,9.88,18.461,9.88,11.883,0,16.1-6.113,18.486-8.622,1.933-2.032,3.792-5.337,3.792-5.337,0,0-.699,4.462-1.573,6.925-.341.962-1.822,5.018-5.748,9.598-4.53,5.286-9.562,7.966-14.957,7.966Z" fill="#fff" stroke-width="0"/>
    <path d="M867.597,767.367c.339-2.382,1.07-3.954,1.941-5.355.992-1.596,9.963-16.128,20.844-16.128,12.993,0,19.317,19.328,36.061,19.328,19.562,0,18.726-19.186,37.497-19.186,13.933,0,19.605,19.271,35.592,19.271,13.876,0,20.244-11.169,21.409-12.493.019.705-.305,1.943-.867,3.311-1.408,3.424-8.525,17.849-20.542,17.849-12.682,0-18.838-19.457-35.592-19.457-21.585,0-20.32,19.372-37.497,19.372-17.329,0-16.283-19.23-35.742-19.23-14.046,0-23.104,12.719-23.104,12.719Z" fill="#fff" stroke-width="0"/>
  </g>
  <g>
    <path d="M999.532,736.034c-6.269,0-10.911-4.357-15.826-8.968-5.495-5.157-11.176-10.489-19.767-10.489-11.002,0-15.825,5.194-20.489,10.216-4.18,4.501-8.503,9.157-17.008,9.157-8.828,0-13.18-4.833-17.388-9.506-4.503-5.001-8.757-9.725-18.354-9.725-13.41,0-23.016,11.664-23.104,11.787h0c.388-2.725,1.66-6.473,3.028-8.662,2.437-3.9,9.233-13.753,19.757-13.753,6.448,0,11.21,4.368,16.253,8.993,5.54,5.081,11.269,10.335,19.808,10.335,9.484,0,13.87-4.592,18.513-9.453,4.571-4.785,9.297-9.733,18.984-9.733,7.095,0,12.197,4.774,17.132,9.391,5.192,4.857,10.56,9.88,18.461,9.88,11.883,0,16.1-6.113,18.486-8.622,1.933-2.032,3.792-5.337,3.792-5.337,0,0-.699,4.462-1.573,6.925-.341.962-1.822,5.018-5.748,9.598-4.53,5.286-9.562,7.966-14.957,7.966Z" fill="#fff" stroke-width="0"/>
    <path d="M867.597,728.505c.339-2.382,1.07-3.954,1.941-5.355.992-1.596,9.963-16.128,20.844-16.128,12.993,0,19.317,19.328,36.061,19.328,19.562,0,18.726-19.186,37.497-19.186,13.933,0,19.605,19.271,35.592,19.271,13.876,0,20.244-11.169,21.409-12.493.019.705-.305,1.943-.867,3.311-1.408,3.424-8.525,17.849-20.542,17.849-12.682,0-18.838-19.457-35.592-19.457-21.585,0-20.32,19.372-37.497,19.372-17.329,0-16.283-19.23-35.742-19.23-14.046,0-23.104,12.719-23.104,12.719Z" fill="#fff" stroke-width="0"/>
  </g>
  <g>
    <path d="M201.349,774.896c6.269,0,10.911-4.357,15.826-8.968,5.495-5.157,11.176-10.489,19.767-10.489,11.002,0,15.825,5.194,20.489,10.216,4.18,4.501,8.503,9.157,17.008,9.157,8.828,0,13.18-4.833,17.388-9.506,4.503-5.001,8.757-9.725,18.354-9.725,13.41,0,23.016,11.664,23.104,11.787h0c-.388-2.725-1.66-6.473-3.028-8.662-2.437-3.9-9.233-13.753-19.757-13.753-6.448,0-11.21,4.368-16.253,8.993-5.54,5.081-11.269,10.335-19.808,10.335-9.484,0-13.87-4.592-18.513-9.453-4.571-4.785-9.297-9.733-18.984-9.733-7.095,0-12.197,4.774-17.132,9.391-5.192,4.857-10.56,9.88-18.461,9.88-11.883,0-16.1-6.113-18.486-8.622-1.933-2.032-3.792-5.337-3.792-5.337,0,0,.699,4.462,1.573,6.925.341.962,1.822,5.018,5.748,9.598,4.53,5.286,9.562,7.966,14.957,7.966Z" fill="#fff" stroke-width="0"/>
    <path d="M333.285,767.367c-.339-2.382-1.07-3.954-1.941-5.355-.992-1.596-9.963-16.128-20.844-16.128-12.993,0-19.317,19.328-36.061,19.328-19.562,0-18.726-19.186-37.497-19.186-13.933,0-19.605,19.271-35.592,19.271-13.876,0-20.244-11.169-21.409-12.493-.019.705.305,1.943.867,3.311,1.408,3.424,8.525,17.849,20.542,17.849,12.682,0,18.838-19.457,35.592-19.457,21.585,0,20.32,19.372,37.497,19.372,17.329,0,16.283-19.23,35.742-19.23,14.046,0,23.104,12.719,23.104,12.719Z" fill="#fff" stroke-width="0"/>
  </g>
  <g>
    <path d="M201.349,736.034c6.269,0,10.911-4.357,15.826-8.968,5.495-5.157,11.176-10.489,19.767-10.489,11.002,0,15.825,5.194,20.489,10.216,4.18,4.501,8.503,9.157,17.008,9.157,8.828,0,13.18-4.833,17.388-9.506,4.503-5.001,8.757-9.725,18.354-9.725,13.41,0,23.016,11.664,23.104,11.787h0c-.388-2.725-1.66-6.473-3.028-8.662-2.437-3.9-9.233-13.753-19.757-13.753-6.448,0-11.21,4.368-16.253,8.993-5.54,5.081-11.269,10.335-19.808,10.335-9.484,0-13.87-4.592-18.513-9.453-4.571-4.785-9.297-9.733-18.984-9.733-7.095,0-12.197,4.774-17.132,9.391-5.192,4.857-10.56,9.88-18.461,9.88-11.883,0-16.1-6.113-18.486-8.622-1.933-2.032-3.792-5.337-3.792-5.337,0,0,.699,4.462,1.573,6.925.341.962,1.822,5.018,5.748,9.598,4.53,5.286,9.562,7.966,14.957,7.966Z" fill="#fff" stroke-width="0"/>
    <path d="M333.285,728.505c-.339-2.382-1.07-3.954-1.941-5.355-.992-1.596-9.963-16.128-20.844-16.128-12.993,0-19.317,19.328-36.061,19.328-19.562,0-18.726-19.186-37.497-19.186-13.933,0-19.605,19.271-35.592,19.271-13.876,0-20.244-11.169-21.409-12.493-.019.705.305,1.943.867,3.311,1.408,3.424,8.525,17.849,20.542,17.849,12.682,0,18.838-19.457,35.592-19.457,21.585,0,20.32,19.372,37.497,19.372,17.329,0,16.283-19.23,35.742-19.23,14.046,0,23.104,12.719,23.104,12.719Z" fill="#fff" stroke-width="0"/>
  </g>
  <g>
    <path d="M463.947,611.29c30.903,13.164,63.04,23.519,95.604,31.548,19.281,4.786,38.83,8.929,58.599,10.612,13.154,1.133,26.45,1.269,39.66.766,61.677-2.331,124.347-15.926,176.556-49.85.718-.461,1.283-.848,1.761-1.274.474-.408.733-.808.734-.857-.054-.973-.671-1.886-1.05-3.09-.69-1.842-1.087-3.977-1.019-6.07.015-2.211.874-4.384,1.287-5.698.202-.678.208-1,.159-1.198-.663-1.614-2.541-2.762-4.02-3.881,0,0-4.104-3.026-4.104-3.026-39.422-28.628-86.05-46.315-134.235-52.728-27.969-3.67-56.465-4.13-84.565-1.689-35.283,2.82-70.496,8.911-103.781,21.374-13.336,5.06-26.502,10.796-38.893,17.911-3.182,1.955-6.626,3.957-10.332,4.783-23.564,5.354-50.525-21.992-65.773-37.289-3.966-3.83-7.679-8.361-12.088-11.273.772.307,2.6-.037,3.376-.887.19-.153.372-.383.478-.513.247-.347.324-.52.38-.67-2.348,5.815-3.741,11.994-3.83,18.285-.26,13.755,5.818,26.634,12.497,38.738,2.124,4.162,4.714,8.404,4.994,13.293-.141,3.392-1.961,6.134-3.394,8.893-3.599,6.358-7.133,12.468-9.683,18.906-5.711,13.61-6.137,28.634.945,41.432-.126-.161-.189-.301-.45-.514-.565-.597-2.081-.964-2.687-.685,2.855-1.64,5.457-4.843,7.925-7.341,18.066-19.507,44.829-50.187,74.95-38.005h0ZM462.568,614.784c-24.987-8.62-44.476,16.254-58.875,33.149-3.516,4.142-6.948,8.467-10.78,12.461-2.361,2.376-4.695,4.847-8.337,6.267-.867.302-2.022.6-3.515.489-1.483-.075-3.204-.838-4.262-1.797-.962-.755-1.481-1.699-2.018-2.628,0,0-.666-1.327-.666-1.327-12.156-25.203-.198-46.321,14.679-66.452,1.267-2.042,2.967-4.149,3.421-6.367.046-.605-.093-1.176-.269-1.774-1.038-3.08-3.161-6.076-4.954-8.903-10.873-15.471-20.784-32.929-17.24-52.883.612-3.677,1.621-7.267,2.944-10.744.235-.562.503-1.147,1.032-1.846,5.372-6.484,12.799-.126,16.865,3.952,15.923,15.378,33.31,41.988,55.031,48.033,5.668,1.455,11.678.757,16.651-2.354,0,0,2.345-1.37,2.345-1.37,43.488-26.574,92.43-45.524,143.463-50.121,86.155-6.919,159.976,12.549,227.642,67.17,2.111,1.746,5.407,3.942,6.008,7.399.289,1.497-.037,2.916-.341,3.864-.656,1.925-1.087,3.002-1.123,4.252-.031,1.335.202,2.634.72,3.999,1.559,3.574,2.536,6.781-1.126,9.978-46.997,33.878-103.64,52.276-161.179,57.314-49.118,4.763-95.201-.42-141.198-18.677-25.325-9.711-49.475-21.811-74.919-31.083h0Z" fill="#fff" stroke-width="0"/>
    <path d="M781.594,572.776c-.453,9.243-11.208,14.105-18.349,7.957-4.868-3.957-5.256-12.159-.706-16.62,7.52-7.757,19.68-1.739,19.055,8.663h0ZM777.403,572.776c-.616-6.145-10.17-5.777-10.915,0-.707,7.913,11.253,7.812,10.915,0h0Z" fill="#fff" stroke-width="0"/>
    <path d="M743.841,558.945c-5.683,9.137-8.325,20.155-8.705,30.864-.095,1.156.013,2.977.03,4.147-.036,2.386.447,5.909.689,8.304.355,1.987.805,4.176,1.182,6.173.472,1.923,1.455,5.176,1.992,7.094.698,1.839,1.926,5.068,2.628,6.923,0,0-2.376,1.131-2.376,1.131-.653-1.369-2.177-4.62-2.797-5.93-.647-1.244-1.852-4.768-2.381-6.134-.49-1.153-.994-2.964-1.322-4.197-1.005-3.284-1.828-7.401-2.351-10.803-.114-1.103-.349-3.321-.461-4.424-.54-6.634-.159-13.534,1.133-20.066,1.202-6.014,3.036-11.962,5.995-17.386,0,0,6.743,4.304,6.743,4.304h0Z" fill="#fff" stroke-width="0"/>
    <path d="M633.324,545.608c-2.797,3.198-3.468,8.207-2.661,12.425.126.686.327,1.36.49,2.057l-2.403,1.145c-3.822-5.743-5.071-13.491-2.17-19.931,0,0,6.743,4.304,6.743,4.304h0Z" fill="#fff" stroke-width="0"/>
    <path d="M601.891,545.608c-2.797,3.197-3.468,8.207-2.661,12.425.126.686.327,1.36.49,2.057l-2.403,1.145c-.401-.68-.844-1.354-1.218-2.07-2.847-5.381-3.507-12.196-.953-17.861,0,0,6.743,4.304,6.743,4.304h0Z" fill="#fff" stroke-width="0"/>
    <path d="M570.457,545.608c-2.797,3.197-3.467,8.207-2.661,12.425.126.686.327,1.36.49,2.057l-2.403,1.145c-.401-.68-.844-1.354-1.218-2.07-2.847-5.381-3.506-12.196-.953-17.861,0,0,6.743,4.304,6.743,4.304h0Z" fill="#fff" stroke-width="0"/>
    <path d="M664.421,545.608c-2.797,3.197-3.467,8.207-2.661,12.425.126.686.327,1.36.49,2.057l-2.403,1.145c-.401-.68-.844-1.354-1.218-2.07-2.847-5.381-3.507-12.196-.953-17.861,0,0,6.743,4.304,6.743,4.304h0Z" fill="#fff" stroke-width="0"/>
    <path d="M617.775,575.289c-2.797,3.198-3.467,8.208-2.661,12.425.126.686.327,1.36.49,2.057l-2.403,1.144c-.401-.68-.844-1.354-1.218-2.069-2.847-5.381-3.507-12.196-.953-17.861,0,0,6.743,4.304,6.743,4.304h0Z" fill="#fff" stroke-width="0"/>
    <path d="M586.342,575.289c-2.797,3.198-3.467,8.208-2.661,12.425.126.686.327,1.36.49,2.057l-2.403,1.144c-3.822-5.742-5.071-13.491-2.17-19.93,0,0,6.743,4.304,6.743,4.304h0Z" fill="#fff" stroke-width="0"/>
    <path d="M554.909,575.289c-2.797,3.198-3.468,8.208-2.661,12.425.126.686.327,1.36.49,2.057l-2.403,1.144c-.401-.68-.844-1.354-1.218-2.069-2.847-5.381-3.507-12.196-.953-17.861,0,0,6.743,4.304,6.743,4.304h0Z" fill="#fff" stroke-width="0"/>
    <path d="M648.872,575.289c-2.797,3.198-3.467,8.208-2.661,12.425.126.686.327,1.36.49,2.057l-2.403,1.144c-3.822-5.742-5.071-13.491-2.17-19.93,0,0,6.743,4.304,6.743,4.304h0Z" fill="#fff" stroke-width="0"/>
    <path d="M633.324,604.969c-2.797,3.198-3.468,8.208-2.661,12.425.126.686.327,1.36.49,2.057l-2.403,1.144c-3.822-5.742-5.071-13.491-2.17-19.93,0,0,6.743,4.304,6.743,4.304h0Z" fill="#fff" stroke-width="0"/>
    <path d="M664.421,604.969c-2.797,3.198-3.467,8.208-2.661,12.425.126.686.327,1.36.49,2.057l-2.403,1.144c-.401-.68-.844-1.354-1.218-2.069-2.847-5.381-3.507-12.196-.953-17.861,0,0,6.743,4.304,6.743,4.304h0Z" fill="#fff" stroke-width="0"/>
    <path d="M635.292,521.903c-11.885-13.611-36.789-39.724-54.615-42.5-15.185-1.788-20.562,5.106-31.99,13.49-3.666,2.644-7.743,4.936-11.895,6.775-7.692,3.531-15.22,7.284-22.362,11.603-9.015,5.71-22.111,14.229-23.608,25.418-.415,3.555,1.001,7.127,3.342,10.243l-3.38,2.779c-14.825-17.126,5.81-35.335,19.57-44.709,8.834-6.284,18.422-11.001,27.64-16.439,9.277-5.969,15.932-15.514,27.125-19.287,6.168-2.104,12.294-2.425,18.461-1.882,8.399,1.028,16.292,5.084,23.297,9.306,15.282,9.593,28.367,21.257,40.92,34.004,0,0-12.503,11.198-12.503,11.198h0Z" fill="#fff" stroke-width="0"/>
    <path d="M676.528,658.918c-8.729,14.702-.227,22.98,14.982,16.532,11.403-5.272,20.264-16.155,27.771-26.091,0,0,7.992,6.205,7.992,6.205-4.718,5.404-9.573,10.205-15.023,14.795-8.275,6.917-18.276,13.191-29.547,12.745-6.05-.112-12.653-3.795-13.4-10.32-.765-5.715,1.797-10.976,5.037-15.453,0,0,2.188,1.587,2.188,1.587h0Z" fill="#fff" stroke-width="0"/>
    <path d="M615.267,661.041c-5.317,8.631-14.763,14.748-24.804,15.929-9.33,1.254-18.266-2.023-27.036-4.688-8.414-2.81-16.695-6.064-24.214-10.935-2.889-1.913-5.678-4.009-7.92-6.787-3.531-4.76-4.673-10.63-4.931-16.412,0,0,3.098-.13,3.098-.13.767,5.879,2.422,12.057,7.292,15.692,8.312,6.214,18.632,9.254,28.607,11.856,11.406,2.67,23.331,6.045,33.523-1.804,2.729-2.081,5.231-4.819,6.802-7.798,0,0,9.583,5.077,9.583,5.077h0Z" fill="#fff" stroke-width="0"/>
  </g>
  <g>
    <path d="M218.163,608.457c2.035.403,3.681,1.275,4.936,2.614,1.256,1.339,2.107,2.943,2.552,4.811.446,1.869.457,3.869.034,6l-3.526,17.771-38.022-7.545,3.807-19.187c.347-1.747,1.12-3.164,2.319-4.253,1.2-1.087,2.608-1.825,4.224-2.213,1.617-.387,3.229-.422,4.835-.103,1.821.361,3.461,1.169,4.919,2.42,1.458,1.252,2.411,2.812,2.856,4.68,1.066-2.004,2.579-3.456,4.539-4.357,1.96-.9,4.136-1.113,6.528-.639ZM190.453,627.205l11.299,2.242,2.132-10.746c.194-.979.118-1.901-.229-2.77-.347-.868-.895-1.612-1.645-2.233-.748-.62-1.659-1.038-2.729-1.25-1.106-.22-2.12-.212-3.039.023-.918.235-1.7.67-2.346,1.305-.645.635-1.062,1.424-1.249,2.368l-2.194,11.061ZM215.852,614.21c-1.071-.213-2.098-.18-3.081.097-.982.277-1.816.738-2.501,1.384-.685.646-1.128,1.475-1.329,2.487l-2.424,12.216,11.675,2.315,2.351-11.847c.208-1.049.117-2.038-.273-2.97-.39-.931-.966-1.726-1.725-2.386-.76-.659-1.657-1.092-2.693-1.297Z" fill="#fff" stroke-width="0"/>
    <path d="M259.193,516.453l4.819,2.448-11.789,23.204-34.56-17.559,11.571-22.775,4.819,2.448-8.835,17.392,9.881,5.021,7.673-15.104,4.478,2.275-7.673,15.104,10.562,5.366,9.053-17.819Z" fill="#fff" stroke-width="0"/>
    <path d="M283.971,425.152l3.813-4.189,38.598,15.182-4.245,4.664-10.289-4.351-10.213,11.223,5.286,9.847-4.245,4.665-18.705-37.04ZM307.424,434.586l-16.58-7.009,8.518,15.868,8.062-8.859Z" fill="#fff" stroke-width="0"/>
    <path d="M368.534,375.529c-1.264-1.999-2.158-4.18-2.681-6.541-.522-2.359-.615-4.756-.276-7.188.338-2.431,1.167-4.72,2.487-6.868,1.319-2.146,3.199-3.992,5.638-5.534,2.921-1.846,5.851-2.762,8.791-2.746,2.938.015,5.582.745,7.928,2.189l-2.254,5.236c-1.408-.961-2.815-1.536-4.22-1.725-1.405-.188-2.747-.094-4.025.283-1.278.378-2.43.891-3.454,1.537-1.656,1.048-2.898,2.316-3.726,3.809-.827,1.492-1.31,3.079-1.449,4.759-.138,1.682.029,3.363.501,5.045s1.157,3.23,2.051,4.646c1.012,1.6,2.223,2.966,3.634,4.098s2.93,1.97,4.559,2.512c1.628.543,3.271.741,4.93.598,1.658-.145,3.24-.692,4.746-1.645,1.054-.666,2.021-1.535,2.903-2.609.88-1.073,1.543-2.31,1.986-3.71.443-1.399.547-2.886.311-4.459l5.718-.257c.398,2.03.257,4.058-.424,6.082-.681,2.023-1.71,3.88-3.087,5.568-1.377,1.689-2.924,3.075-4.641,4.16-2.199,1.391-4.538,2.19-7.018,2.401-2.48.212-4.916-.058-7.307-.807-2.392-.749-4.601-1.893-6.627-3.433-2.027-1.539-3.692-3.34-4.995-5.401Z" fill="#fff" stroke-width="0"/>
    <path d="M491.426,298.63l11.156,37.123-5.732,1.724-4.918-16.366-18.323,5.507,4.918,16.365-5.784,1.738-11.156-37.124,5.784-1.738,4.667,15.529,18.323-5.506-4.667-15.529,5.732-1.723Z" fill="#fff" stroke-width="0"/>
    <path d="M727.47,304.048l-10.151,37.411-5.777-1.567,4.475-16.493-18.465-5.01-4.475,16.493-5.828-1.581,10.151-37.413,5.829,1.582-4.247,15.649,18.465,5.011,4.247-15.649,5.777,1.567Z" fill="#fff" stroke-width="0"/>
    <path d="M799.403,379.058c-2.29-1.377-4.101-3.102-5.432-5.176-1.332-2.073-2.209-4.33-2.632-6.772-.424-2.441-.405-4.894.056-7.355s1.329-4.753,2.604-6.876c1.331-2.215,2.998-4.09,5.001-5.625s4.188-2.663,6.556-3.386c2.366-.722,4.766-.979,7.197-.771,2.431.209,4.776.991,7.037,2.35,2.352,1.413,4.176,3.169,5.473,5.264,1.297,2.097,2.145,4.368,2.544,6.816.399,2.448.365,4.891-.102,7.328-.467,2.437-1.338,4.716-2.613,6.838-1.312,2.184-2.956,4.052-4.928,5.605-1.973,1.554-4.143,2.691-6.509,3.413-2.367.723-4.761.972-7.183.747-2.422-.224-4.778-1.024-7.069-2.4ZM799.267,356.044c-.956,1.591-1.634,3.254-2.032,4.989-.399,1.735-.49,3.443-.273,5.123.216,1.681.761,3.229,1.635,4.646.873,1.417,2.119,2.611,3.738,3.584,1.649.991,3.321,1.529,5.016,1.613,1.695.085,3.336-.192,4.926-.829,1.588-.638,3.043-1.536,4.364-2.696,1.32-1.159,2.431-2.488,3.331-3.986.957-1.591,1.621-3.251,1.995-4.979.374-1.729.445-3.438.213-5.127-.232-1.689-.785-3.243-1.658-4.659-.874-1.417-2.089-2.594-3.646-3.529-1.68-1.01-3.36-1.552-5.04-1.627-1.68-.075-3.31.198-4.889.82-1.58.622-3.029,1.513-4.35,2.673-1.321,1.159-2.431,2.488-3.331,3.985Z" fill="#fff" stroke-width="0"/>
    <path d="M881.9,445.762c-2.067-2.214-3.427-4.442-4.078-6.687-.651-2.243-.744-4.448-.276-6.615.466-2.166,1.35-4.26,2.651-6.279,1.301-2.019,2.87-3.887,4.705-5.601l14.365-13.416,4.122,4.413-14.365,13.417c-1.304,1.217-2.445,2.515-3.424,3.893-.979,1.378-1.68,2.8-2.103,4.268-.423,1.467-.463,2.942-.122,4.428.341,1.485,1.18,2.944,2.518,4.377,1.386,1.483,2.808,2.446,4.267,2.889,1.458.44,2.953.495,4.485.161,1.531-.332,3.011-.936,4.439-1.806,1.428-.87,2.78-1.901,4.057-3.095l14.365-13.415,4.122,4.414-14.365,13.415c-1.942,1.813-3.984,3.293-6.125,4.44-2.142,1.146-4.308,1.854-6.499,2.12-2.192.267-4.364-.019-6.518-.858-2.154-.84-4.229-2.328-6.222-4.463Z" fill="#fff" stroke-width="0"/>
    <path d="M972.262,524.828c.208-.468.354-1.115.44-1.941.085-.826.089-1.73.011-2.714-.078-.982-.245-2.02-.502-3.109-.257-1.091-.646-2.143-1.17-3.155-1.146-2.216-2.415-3.646-3.808-4.288-1.393-.645-2.83-.583-4.31.183-1.094.565-1.807,1.314-2.14,2.249-.333.934-.377,2.13-.133,3.588.244,1.458.615,3.222,1.114,5.29.647,2.593,1.014,4.921,1.102,6.981.087,2.061-.264,3.866-1.052,5.417-.789,1.552-2.229,2.867-4.32,3.948-1.706.883-3.354,1.322-4.944,1.323-1.59,0-3.074-.366-4.451-1.098-1.377-.732-2.644-1.742-3.799-3.029-1.155-1.289-2.174-2.787-3.058-4.496-.868-1.678-1.544-3.443-2.032-5.297s-.773-3.712-.854-5.575c-.083-1.862.042-3.702.374-5.518l5.932.062c-.224.598-.382,1.421-.474,2.472-.093,1.05-.099,2.206-.02,3.469.079,1.263.28,2.583.603,3.96.322,1.377.812,2.699,1.466,3.965,1.096,2.12,2.311,3.548,3.645,4.282s2.722.729,4.165-.017c1.126-.583,1.843-1.426,2.152-2.527.307-1.102.347-2.465.118-4.092-.229-1.626-.602-3.53-1.116-5.71-.566-2.516-.863-4.708-.892-6.578-.029-1.871.332-3.461,1.083-4.771.75-1.312,2.027-2.432,3.831-3.364,2.254-1.165,4.436-1.622,6.546-1.369,2.109.253,4.041,1.108,5.796,2.568,1.754,1.46,3.221,3.329,4.399,5.607.786,1.52,1.364,3.055,1.737,4.607.372,1.552.574,3.072.605,4.56.032,1.488-.087,2.883-.356,4.186l-5.689-.067Z" fill="#fff" stroke-width="0"/>
    <path d="M982.448,634.674l-5.289,1.114-5.369-25.467,37.931-7.997,5.27,24.997-5.289,1.114-4.024-19.087-10.845,2.286,3.495,16.577-4.915,1.036-3.495-16.577-11.593,2.444,4.124,19.559Z" fill="#fff" stroke-width="0"/>
  </g>
  <path d="M128.954,961.146v-261.246c0-260.151,210.894-471.046,471.046-471.046s471.046,210.894,471.046,471.046v261.246H128.954Z" fill="none" stroke="#fff" stroke-miterlimit="10" stroke-width="5"/>
  <g>
    <path d="M178.02,892.295c0-7.816,6.03-16.303,20.546-16.303-2.233,3.796-3.35,8.933-3.35,14.293,0,13.176,9.157,22.556,21.886,22.556,8.71,0,17.866-5.583,17.866-16.973,0-26.13-55.833-27.247-55.833-54.046,0-15.41,15.633-20.546,30.596-20.546,13.177,0,24.79,3.573,33.723,3.573,3.573,0,6.253-.446,8.487-2.457-1.117,9.157-5.807,15.856-13.623,15.856-13.4,0-18.313-14.516-30.596-14.516-6.477,0-11.613,4.69-11.613,11.389,0,24.12,55.833,26.353,55.833,55.609,0,16.75-18.313,24.344-35.51,24.344-23.226,0-38.413-9.603-38.413-22.78Z" fill="#fff" stroke-width="0"/>
    <path d="M263.109,869.739c0-34.393,24.79-48.463,46.229-48.463,16.303,0,30.596,7.816,30.596,21.663,0,27.247-40.2,24.79-51.366,52.93,5.583,7.593,14.07,11.836,24.343,11.836,15.186,0,22.333-10.72,25.906-17.643-1.563,9.827-8.933,25.013-31.49,25.013-27.916,0-44.219-20.77-44.219-45.336ZM322.962,838.473c0-10.05-5.806-14.963-13.846-14.963-12.283,0-28.586,13.4-28.586,45.336,0,10.05,2.457,18.313,6.477,24.566,8.487-25.907,35.956-29.256,35.956-54.94Z" fill="#fff" stroke-width="0"/>
    <path d="M353.333,892.295c0-32.159,56.949-29.926,66.553-54.716v-2.233c0-6.923-2.233-10.943-7.593-10.943-9.157,0-17.196,14.07-30.82,14.07-11.167,0-17.42-7.147-17.42-16.08,4.69,2.01,9.157,2.68,14.517,2.68,10.497,0,17.42-3.796,27.47-3.796,14.07,0,30.82,5.806,30.82,39.753v30.372c0,11.39,2.457,18.76,5.137,22.557-11.613,0-22.11-2.233-22.11-20.1v-12.73c-2.68,10.273-13.177,33.947-37.743,33.947-14.293,0-28.81-6.7-28.81-22.78ZM419.886,871.525v-29.033c-7.817,20.1-49.133,23.227-49.133,48.686,0,12.506,10.497,15.856,16.75,15.856,19.653,0,30.819-20.993,32.383-35.51Z" fill="#fff" stroke-width="0"/>
    <path d="M513.68,911.502c-4.69,0-7.816.893-10.273,2.457,2.68-12.73,3.35-23.003,3.35-46.9v-42.433c0-6.699-.447-17.866-4.467-22.779,9.826-2.233,19.653-8.04,24.343-15.187-2.233,14.293-2.68,24.79-2.68,50.25v21.886c1.787-10.273,9.603-37.519,35.063-37.519,26.353,0,37.296,22.779,37.296,45.783,0,35.509-22.78,48.016-46.006,48.016-16.08,0-27.693-3.574-36.626-3.574ZM578.669,867.059c0-22.779-8.933-38.19-24.566-38.19-18.537,0-27.47,23.003-30.15,41.986v30.15c10.05,2.01,18.983,11.167,31.49,11.167,8.04,0,23.226-5.583,23.226-45.113Z" fill="#fff" stroke-width="0"/>
    <path d="M610.826,889.838v-29.479c0-6.7-.447-17.867-4.467-22.78,9.826-2.233,19.653-8.04,24.343-15.187-1.787,12.06-2.68,21.217-2.68,38.637,3.127-19.207,8.71-39.753,26.576-39.753,11.167,0,16.973,3.573,26.13,3.573,3.797,0,6.477-.446,8.71-2.457-1.117,9.157-5.36,15.856-13.623,15.856-11.167,0-17.42-7.593-26.8-7.593-13.623,0-18.76,26.576-20.993,46.452v12.73c0,9.827,1.117,20.1,4.467,24.12h-26.13c3.35-4.02,4.467-14.293,4.467-24.12Z" fill="#fff" stroke-width="0"/>
    <path d="M688.324,869.739c0-34.393,24.79-48.463,46.229-48.463,16.303,0,30.596,7.816,30.596,21.663,0,27.247-40.2,24.79-51.366,52.93,5.583,7.593,14.07,11.836,24.343,11.836,15.186,0,22.333-10.72,25.906-17.643-1.563,9.827-8.933,25.013-31.49,25.013-27.916,0-44.219-20.77-44.219-45.336ZM748.176,838.473c0-10.05-5.806-14.963-13.846-14.963-12.283,0-28.586,13.4-28.586,45.336,0,10.05,2.457,18.313,6.477,24.566,8.487-25.907,35.956-29.256,35.956-54.94Z" fill="#fff" stroke-width="0"/>
    <path d="M776.316,869.739c0-34.393,24.79-48.463,46.229-48.463,16.303,0,30.596,7.816,30.596,21.663,0,27.247-40.2,24.79-51.366,52.93,5.583,7.593,14.07,11.836,24.343,11.836,15.186,0,22.333-10.72,25.906-17.643-1.563,9.827-8.933,25.013-31.49,25.013-27.916,0-44.219-20.77-44.219-45.336ZM836.168,838.473c0-10.05-5.806-14.963-13.846-14.963-12.283,0-28.586,13.4-28.586,45.336,0,10.05,2.457,18.313,6.477,24.566,8.487-25.907,35.956-29.256,35.956-54.94Z" fill="#fff" stroke-width="0"/>
    <path d="M917.239,825.073c-13.846,1.563-25.906,13.623-38.19,13.623-11.836,0-17.196-8.264-17.643-16.304,4.02,2.01,9.38,2.904,14.517,2.904,10.72,0,20.993-2.904,42.879-2.904h20.547l-56.056,89.333h1.117c33.946,0,46.676-5.583,53.823-11.836l2.903,14.07h-79.729l55.833-88.886Z" fill="#fff" stroke-width="0"/>
    <path d="M945.154,869.739c0-34.393,24.79-48.463,46.229-48.463,16.303,0,30.596,7.816,30.596,21.663,0,27.247-40.2,24.79-51.366,52.93,5.583,7.593,14.07,11.836,24.343,11.836,15.186,0,22.333-10.72,25.906-17.643-1.563,9.827-8.933,25.013-31.49,25.013-27.916,0-44.219-20.77-44.219-45.336ZM1005.007,838.473c0-10.05-5.806-14.963-13.846-14.963-12.283,0-28.586,13.4-28.586,45.336,0,10.05,2.457,18.313,6.477,24.566,8.487-25.907,35.956-29.256,35.956-54.94Z" fill="#fff" stroke-width="0"/>
  </g>
</svg>