<?xml version="1.0" encoding="UTF-8"?>
<svg id="a" data-name="Ebene 1" xmlns="http://www.w3.org/2000/svg" width="1200" height="1200" viewBox="0 0 1200 1200">
  <circle cx="600" cy="600" r="400.657" fill="none" stroke="#27348b" stroke-miterlimit="10" stroke-width="5"/>
  <g>
    <path d="M323.817,541.796c-6.502-2.235-12.501-10.285-7.438-25.009,2.784,3.096,7.236,5.695,11.825,7.273,11.664,4.011,21.752-1.074,25.104-10.825,2.433-7.076.276-15.729-9.476-19.082-22.755-7.824-39.957,39.718-62.712,31.894-13.193-4.537-12.535-20.134-7.801-33.9,4.01-11.665,10.489-20.557,13.185-28.396,1.184-3.441,1.398-5.934.526-8.371,7.511,3.651,12.889,9.776,10.259,17.425-4.142,12.047-18.525,11.592-22.076,21.917-1.709,4.973.161,10.106,5.706,12.012,19.695,6.772,38.427-40.242,63.858-31.497,14.915,5.128,16.019,23.683,10.628,39.361-6.707,19.505-19.735,31.276-31.59,27.199Z" fill="#27348b" stroke-width="0"/>
    <path d="M332.932,457.593c-25.358-17.72-22.663-43.464-11.197-59.871,8.802-12.598,22.594-19.979,33.035-12.684,19.559,13.666-2.448,42.688,11.087,64.974,8.58.076,16.462-3.79,22.137-11.911,7.412-10.608,3.941-21.173.507-28.26,6.481,6.256,14.312,20.114,2.035,37.683-15.056,21.547-38.875,23.156-57.604,10.069ZM340.535,397.291c-6.961-4.864-13.271-3.6-17.093,1.869-6.022,8.619-3.838,26.673,19.201,42.771,6.961,4.864,13.804,7.426,19.967,7.784-13.55-19.087-4.01-39.8-22.075-52.425Z" fill="#27348b" stroke-width="0"/>
    <path d="M396.722,403.315c-17.875-23.238,24.115-52.221,17.484-75.435l-1.356-1.763c-4.067-5.29-7.482-6.745-11.009-4.033-6.251,4.809-3.478,20.021-13.574,27.788-8.334,6.41-17.014,4.412-22.314-2.479,4.315-1.023,7.891-3.008,12.058-6.214,7.693-5.916,10.566-12.463,18.259-18.38,9.136-7.027,25.705-14.669,44.812,10.173l16.766,21.797c6.287,8.174,12.487,12.587,16.507,13.832-10.898,8.384-19.59,12.008-29.452-.814l-5.547-7.212c4.289,10.221,7.248,30.648-8.94,43.099-10.578,8.137-24.817,11.182-33.692-.359ZM433.931,353.523l-16.643-21.636c4.954,18.382-20.035,41.939-6.722,59.249,6.411,8.333,14.991,5.561,19.639,1.986,12.341-9.493,10.246-28.8,3.726-39.6Z" fill="#27348b" stroke-width="0"/>
    <path d="M523.515,346.948c-4.983.848-7.839,2.153-9.794,3.922.999-9.811.038-19.081-3.079-37.421l-7.387-43.458c-.915-5.382-2.809-15.315-7.342-19.058,9.063-3.387,18.116-10.462,22.016-17.688.272,12.465,1.434,21.702,4.656,41.87l3.728,21.927c.299-10.305,3.646-34.052,26.172-37.88,24.121-4.1,37.346,14.573,40.835,35.104,5.388,31.697-13.446,46.383-35.573,50.145-13.954,2.372-26.059,1.148-34.231,2.537ZM574.98,297.385c-3.523-20.732-13.433-31.97-26.789-29.699-15.149,2.576-20.438,22.14-19.744,41.916l4.537,25.482c9.144.702,18.074,7.388,28.44,5.625,6.977-1.186,19.554-8.041,13.556-43.324Z" fill="#27348b" stroke-width="0"/>
    <path d="M607.482,316.589l3.651-27.052c.73-5.41,1.882-15.457-1.331-20.38,9.662-.532,20.411-4.59,26.287-10.326-3.037,10.403-4.947,18.512-6.976,33.54,5.532-16.8,13.522-33.677,29.754-31.486,10.42,1.406,14.597,5.235,23.213,6.398,3.808.513,6.266.438,8.513-1.096-2.11,8.08-6.264,14.662-14.68,13.524-10.42-1.406-15.057-9.376-23.474-10.513-12.423-1.676-20.824,21.266-25.463,39.002l-1.461,10.822c-1.189,8.816-1.432,18.169,1.088,22.182l-26.051-3.516c3.493-3.201,5.738-12.283,6.929-21.101Z" fill="#27348b" stroke-width="0"/>
    <path d="M686.376,309.908c12.297-28.388,38.062-30.89,56.431-22.934,14.101,6.108,24.091,18.147,19.028,29.838-9.484,21.895-42.32,6.129-61.452,23.844,1.64,8.423,7.004,15.373,16.095,19.312,11.875,5.144,21.534-.369,27.793-5.15-4.836,7.602-16.851,18.043-36.519,9.524-24.121-10.449-30.457-33.467-21.376-54.435ZM746.984,305.311c3.375-7.794.876-13.724-5.247-16.376-9.647-4.179-26.902,1.569-38.073,27.359-3.376,7.793-4.519,15.011-3.64,21.121,15.997-17.091,38.199-11.88,46.96-32.104Z" fill="#27348b" stroke-width="0"/>
    <path d="M763.491,345.321c19.706-23.849,45.148-19.087,60.579-6.336,11.847,9.788,18.094,24.13,9.979,33.95-15.198,18.394-42.353-5.881-65.656,5.813-.767,8.548,2.451,16.714,10.089,23.025,9.976,8.243,20.786,5.635,28.127,2.782-6.758,5.957-21.202,12.644-37.725-1.008-20.263-16.743-19.948-40.614-5.394-58.228ZM822.983,357.759c5.41-6.547,4.658-12.938-.485-17.188-8.105-6.697-26.276-5.974-44.179,15.691-5.41,6.547-8.515,13.161-9.369,19.274,20.117-11.967,39.994-.787,54.033-17.777Z" fill="#27348b" stroke-width="0"/>
    <path d="M887.249,417.341c-7.803-8.364-23.568-11.178-29.929-20.3-6.36-9.123-2.22-17.68,3.57-22.456.523,3.579,2.701,8.47,5.477,12.451,5.782,8.293,14.067,15.581,24.245,30.178l12.489,17.914-94.928,4.56.694.995c17.577,25.212,29.08,30.75,37.144,32.77l-9.992,10.417-43.135-61.868,94.364-4.66Z" fill="#27348b" stroke-width="0"/>
    <path d="M871.888,467.034c29.207-10.196,48.507,7.051,55.104,25.95,5.066,14.508,2.983,30.012-9.043,34.211-22.525,7.863-33.186-26.963-59.177-29.025-5.082,6.915-6.558,15.568-3.292,24.922,4.266,12.217,14.864,15.584,22.62,16.944-8.866,1.597-24.685-.162-31.75-20.396-8.663-24.815,3.967-45.074,25.537-52.605ZM916.342,508.481c8.018-2.799,10.685-8.655,8.484-14.955-3.466-9.927-19.385-18.717-45.918-9.453-8.018,2.799-14.1,6.85-17.996,11.637,23.406.181,34.622,20.037,55.43,12.771Z" fill="#27348b" stroke-width="0"/>
  </g>
  <circle cx="600" cy="600" r="420.351" fill="none" stroke="#27348b" stroke-miterlimit="10" stroke-width="5"/>
  <g>
    <path d="M481.14,643.196c28.9,12.372,59.042,21.885,89.529,29.324,18.036,4.432,36.312,8.313,54.791,9.878,12.297,1.053,24.722,1.186,37.073.715,57.678-2.186,116.299-14.765,165.164-46.434.953-.574,1.503-1.01,2.121-1.679.104-.136.145-.221.145-.221,0-.006.004.047.001-.034-.133-.849-.624-1.649-.981-2.741-.652-1.739-1.028-3.764-.964-5.748.014-2.1.831-4.169,1.21-5.379.186-.625.181-.893.143-1.036-.027-.15-.172-.459-.513-.867-37.931-30.191-84.776-48.118-132.616-54.571-26.145-3.403-52.786-3.823-79.049-1.536-32.989,2.624-65.933,8.178-97.092,19.747-12.487,4.703-24.826,10.026-36.422,16.676-2.988,1.837-6.224,3.718-9.706,4.499-22.15,5.041-47.475-20.44-61.836-34.802-3.679-3.552-7.162-7.754-11.198-10.462.819.344,2.696-.012,3.519-.893.417-.276.771-.957.893-1.237,0,0-.192.489-.192.489-2.077,5.255-3.299,10.82-3.403,16.486-.285,12.819,5.325,24.86,11.527,36.185,2.027,4.048,4.647,8.248,4.654,13.023-.379,3.053-1.844,5.413-3.164,7.907-3.354,5.968-6.633,11.692-8.987,17.712-5.266,12.719-5.59,26.64.968,38.506-.131-.186-.219-.333-.49-.564-.568-.641-2.226-1.004-2.85-.705,2.57-1.504,5.012-4.475,7.283-6.772,17.005-18.306,42.143-46.925,70.442-35.462h0ZM479.761,646.69c-23.342-7.99-41.417,15.342-54.824,31.124-3.286,3.884-6.496,7.944-10.087,11.69-2.239,2.257-4.449,4.594-7.931,5.95-.84.292-1.966.585-3.43.476-2.397-.145-4.745-1.767-5.858-3.795-.767-1.422-1.471-2.856-2.079-4.335-9.538-22.85,1.807-42.03,15.07-59.872,1.158-1.84,2.692-3.784,3.179-5.746.104-.596-.055-1.167-.223-1.758-.973-2.858-2.971-5.656-4.649-8.284-3.739-5.546-7.705-11.247-10.84-17.61-5.778-11.146-7.984-25.134-4.265-37.493.269-1.336.89-2.674,1.29-3.971.334-.911.564-1.561,1.266-2.501,5.213-6.28,12.343-.332,16.3,3.659,14.912,14.385,31.011,39.326,51.299,45.055,5.273,1.367,10.858.732,15.488-2.161,0,0,2.196-1.282,2.196-1.282,40.704-24.94,86.481-42.932,134.303-47.259,80.846-6.474,149.801,11.867,213.218,63.181,1.983,1.647,5.126,3.748,5.687,7.038.278,1.443-.038,2.806-.325,3.702-.622,1.822-1.011,2.795-1.045,3.934-.028,1.226.185,2.414.664,3.676,1.503,3.413,2.372,6.499-1.1,9.532-44.004,31.789-97.018,49.145-150.947,53.878-45.873,4.474-89.367-.368-132.274-17.588-23.685-9.169-46.24-20.602-70.08-29.241h0Z" fill="#27348b" stroke-width="0"/>
    <path d="M778.538,607.261c-.455,8.774-10.632,13.398-17.442,7.581-4.663-3.758-5.051-11.605-.706-15.868,7.188-7.425,18.779-1.647,18.148,8.287h0ZM774.347,607.261c-.571-5.459-9.137-5.083-9.852,0-.753,7.209,10.219,7.113,9.852,0h0Z" fill="#27348b" stroke-width="0"/>
    <path d="M743.283,594.453c-4.686,7.406-7.05,16.211-7.98,24.892-.04.732-.233,4.174-.264,4.823.082,2.152.009,4.65.285,6.783,0,0,.405,3.88.405,3.88.327,1.857.741,3.904,1.088,5.771.436,1.798,1.346,4.841,1.843,6.636.648,1.721,1.787,4.744,2.439,6.48,0,0-2.376,1.131-2.376,1.131-.838-1.756-2.261-4.763-3.075-6.478-.676-1.832-1.892-4.923-2.5-6.758-.532-1.947-1.149-4.041-1.653-5.984-.237-1.467-.956-4.71-1.133-6.132-.109-1.035-.335-3.115-.442-4.149-.52-6.155-.174-12.775,1.017-18.837,1.117-5.658,2.827-11.255,5.603-16.362,0,0,6.743,4.304,6.743,4.304h0Z" fill="#27348b" stroke-width="0"/>
    <path d="M639.843,581.97c-2.199,2.364-3.061,6.203-2.832,9.542.055,1.295.352,2.564.662,3.838,0,0-2.403,1.144-2.403,1.144-.383-.636-.805-1.266-1.163-1.937-2.735-5.066-3.404-11.521-1.007-16.891,0,0,6.743,4.304,6.743,4.304h0Z" fill="#27348b" stroke-width="0"/>
    <path d="M610.422,581.97c-2.199,2.364-3.061,6.203-2.832,9.542.055,1.295.352,2.564.662,3.838,0,0-2.403,1.144-2.403,1.144-.383-.636-.805-1.266-1.163-1.937-2.735-5.066-3.404-11.521-1.007-16.891,0,0,6.743,4.304,6.743,4.304h0Z" fill="#27348b" stroke-width="0"/>
    <path d="M581.002,581.97c-2.199,2.364-3.061,6.203-2.832,9.542.055,1.295.352,2.564.662,3.838,0,0-2.403,1.144-2.403,1.144-.383-.636-.805-1.266-1.163-1.937-2.735-5.066-3.404-11.521-1.007-16.891,0,0,6.743,4.304,6.743,4.304h0Z" fill="#27348b" stroke-width="0"/>
    <path d="M668.949,581.97c-2.199,2.364-3.061,6.203-2.832,9.542.055,1.295.352,2.564.662,3.838,0,0-2.403,1.144-2.403,1.144-.383-.636-.805-1.266-1.163-1.937-2.735-5.066-3.404-11.521-1.007-16.891,0,0,6.743,4.304,6.743,4.304h0Z" fill="#27348b" stroke-width="0"/>
    <path d="M625.29,609.75c-2.199,2.363-3.061,6.203-2.832,9.542.055,1.295.352,2.564.662,3.838,0,0-2.403,1.144-2.403,1.144-.383-.636-.805-1.266-1.163-1.937-2.735-5.066-3.404-11.521-1.007-16.892,0,0,6.743,4.304,6.743,4.304h0Z" fill="#27348b" stroke-width="0"/>
    <path d="M595.869,609.75c-2.199,2.364-3.061,6.203-2.832,9.542.055,1.295.352,2.564.662,3.838,0,0-2.403,1.144-2.403,1.144-.383-.636-.805-1.266-1.163-1.937-2.735-5.066-3.404-11.521-1.007-16.892,0,0,6.743,4.304,6.743,4.304h0Z" fill="#27348b" stroke-width="0"/>
    <path d="M566.449,609.75c-2.199,2.364-3.061,6.203-2.832,9.542.055,1.295.352,2.564.662,3.838,0,0-2.403,1.144-2.403,1.144-.383-.636-.805-1.266-1.163-1.937-2.735-5.066-3.404-11.521-1.007-16.892,0,0,6.743,4.304,6.743,4.304h0Z" fill="#27348b" stroke-width="0"/>
    <path d="M654.396,609.75c-2.199,2.364-3.061,6.203-2.832,9.542.055,1.295.352,2.564.662,3.838,0,0-2.403,1.144-2.403,1.144-.383-.636-.805-1.266-1.163-1.937-2.735-5.066-3.404-11.521-1.007-16.892,0,0,6.743,4.304,6.743,4.304h0Z" fill="#27348b" stroke-width="0"/>
    <path d="M639.843,637.53c-2.199,2.364-3.061,6.203-2.832,9.543.055,1.295.352,2.564.662,3.838,0,0-2.403,1.144-2.403,1.144-.383-.636-.805-1.266-1.163-1.937-2.735-5.067-3.404-11.521-1.007-16.892,0,0,6.743,4.304,6.743,4.304h0Z" fill="#27348b" stroke-width="0"/>
    <path d="M668.949,637.53c-2.199,2.364-3.061,6.203-2.832,9.543.055,1.295.352,2.564.662,3.838,0,0-2.403,1.144-2.403,1.144-.383-.636-.805-1.266-1.163-1.937-2.735-5.067-3.404-11.521-1.007-16.892,0,0,6.743,4.304,6.743,4.304h0Z" fill="#27348b" stroke-width="0"/>
    <path d="M641.069,560.004c-11.128-12.768-34.066-36.997-50.747-39.746-14.036-1.719-19.121,4.739-29.724,12.486-3.449,2.477-7.289,4.629-11.194,6.35-7.202,3.287-14.247,6.78-20.929,10.801-8.442,5.34-20.589,13.146-22.062,23.599-.393,3.279.902,6.583,3.072,9.489l-3.38,2.779c-13.98-16.094,5.344-33.287,18.294-42.136,8.264-5.903,17.227-10.333,25.845-15.443,8.682-5.628,14.907-14.581,25.433-18.14,5.841-2,11.616-2.311,17.444-1.805,7.923.956,15.385,4.767,21.99,8.734,14.37,8.985,26.652,19.889,38.461,31.835,0,0-12.503,11.198-12.503,11.198h0Z" fill="#27348b" stroke-width="0"/>
    <path d="M680.135,687.938c-8.056,13.622-.182,21.281,13.88,15.23,10.593-4.944,18.851-15.148,25.809-24.428,0,0,7.992,6.206,7.992,6.206-4.448,5.066-9.008,9.548-14.139,13.845-5.177,4.281-10.883,8.244-17.39,10.372-10.823,3.937-25.964.779-22.816-13.723.85-3.392,2.409-6.303,4.475-9.09,0,0,2.188,1.587,2.188,1.587h0Z" fill="#27348b" stroke-width="0"/>
    <path d="M623.033,690.037c-5.035,8.157-13.984,13.93-23.479,15.028-8.778,1.165-17.171-1.925-25.411-4.455-7.886-2.655-15.641-5.724-22.685-10.311-2.713-1.806-5.329-3.781-7.436-6.402-3.316-4.488-4.377-10.003-4.608-15.445,0,0,3.098-.13,3.098-.13.734,5.474,2.279,11.212,6.822,14.58,7.775,5.776,17.422,8.589,26.742,10.993,10.602,2.458,21.753,5.57,31.136-1.734,2.5-1.919,4.824-4.481,6.239-7.201,0,0,9.583,5.077,9.583,5.077h0Z" fill="#27348b" stroke-width="0"/>
  </g>
  <path d="M920.22,614.598c-.455,8.774-10.633,13.398-17.442,7.581-4.663-3.758-5.051-11.605-.706-15.868,7.188-7.425,18.779-1.647,18.148,8.287h0ZM916.029,614.598c-.571-5.459-9.137-5.083-9.852,0-.763,7.205,10.228,7.11,9.852,0h0Z" fill="#27348b" stroke-width="0"/>
  <path d="M300.898,614.598c-.455,8.773-10.633,13.398-17.442,7.581-4.663-3.758-5.051-11.605-.706-15.868,7.188-7.425,18.779-1.647,18.148,8.288h0ZM296.707,614.598c-.571-5.459-9.137-5.083-9.852,0-.753,7.209,10.219,7.113,9.852,0h0Z" fill="#27348b" stroke-width="0"/>
  <g>
    <path d="M311.559,735.647c-1.868.789-3.681.976-5.439.56-1.76-.416-3.338-1.275-4.737-2.577-1.399-1.301-2.521-2.951-3.364-4.95l-7.034-16.665,34.902-14.733,7.596,17.991c.691,1.639.855,3.24.492,4.802-.364,1.564-1.091,2.952-2.181,4.164-1.091,1.214-2.373,2.131-3.848,2.755-1.672.705-3.445.941-5.318.71-1.875-.232-3.512-1-4.909-2.301.253,2.248-.161,4.286-1.243,6.113s-2.721,3.205-4.917,4.132ZM310.226,729.608c.983-.416,1.794-1.009,2.434-1.781.639-.772,1.057-1.614,1.25-2.526s.09-1.844-.311-2.793l-4.835-11.454-10.717,4.522,4.69,11.111c.415.982,1.039,1.752,1.872,2.309.833.555,1.74.896,2.72,1.022.98.128,1.945-.01,2.896-.41ZM323.512,704.828l-10.373,4.379,4.254,10.077c.387.917.962,1.64,1.726,2.167.763.527,1.619.843,2.57.943.948.1,1.916-.057,2.898-.471,1.016-.43,1.829-.996,2.441-1.697.61-.702,1-1.494,1.169-2.375.168-.883.065-1.766-.308-2.651l-4.379-10.372Z" fill="#27348b" stroke-width="0"/>
    <path d="M346.68,799.444l-4.261,3.122-15.362-20.958,30.557-22.397,15.078,20.571-4.261,3.123-11.515-15.709-8.735,6.404,9.999,13.643-3.96,2.901-9.999-13.642-9.339,6.845,11.798,16.097Z" fill="#27348b" stroke-width="0"/>
    <path d="M408.502,816.504l4.301,3.675-13.406,38.373-4.787-4.09,3.873-10.234-11.521-9.84-9.516,5.416-4.788-4.089,35.844-19.211ZM400.149,839.825l6.241-16.492-15.335,8.726,9.094,7.767Z" fill="#27348b" stroke-width="0"/>
    <path d="M445.643,866.201c1.042-2.064,2.43-3.905,4.162-5.521,1.733-1.614,3.719-2.883,5.958-3.806,2.238-.921,4.61-1.356,7.116-1.307,2.506.049,5.045.725,7.616,2.023,3.08,1.556,5.374,3.582,6.885,6.077,1.508,2.496,2.257,5.097,2.247,7.802l-5.611.692c.086-1.67-.155-3.146-.722-4.431-.568-1.282-1.343-2.371-2.325-3.266-.983-.894-2.015-1.615-3.094-2.161-1.747-.882-3.467-1.303-5.161-1.261-1.694.04-3.291.42-4.789,1.137-1.499.718-2.84,1.695-4.021,2.931-1.183,1.236-2.143,2.585-2.88,4.045-.834,1.651-1.366,3.355-1.596,5.112-.23,1.758-.154,3.459.229,5.107.383,1.648,1.064,3.139,2.046,4.472.98,1.331,2.265,2.399,3.853,3.201,1.111.562,2.351.948,3.718,1.161,1.367.212,2.76.159,4.177-.162,1.417-.32,2.732-.971,3.945-1.953l3.179,4.715c-1.518,1.347-3.311,2.233-5.38,2.662-2.07.43-4.179.481-6.325.153-2.146-.327-4.124-.947-5.934-1.861-2.318-1.171-4.209-2.755-5.672-4.749-1.464-1.995-2.497-4.189-3.1-6.587-.603-2.396-.776-4.836-.519-7.316.256-2.48.923-4.784,1.997-6.911Z" fill="#27348b" stroke-width="0"/>
    <path d="M551.16,884.49l-8.279,36.969-5.831-1.306,3.649-16.298-18.642-4.174-3.649,16.298-5.884-1.318,8.279-36.969,5.883,1.316-3.463,15.466,18.642,4.174,3.463-15.464,5.832,1.306Z" fill="#27348b" stroke-width="0"/>
    <path d="M670.779,879.853l7.183,37.198-5.868,1.133-3.166-16.398-18.757,3.621,3.166,16.398-5.92,1.144-7.182-37.198,5.92-1.143,3.004,15.561,18.757-3.623-3.005-15.56,5.868-1.133Z" fill="#27348b" stroke-width="0"/>
    <path d="M741.45,894.405c-2.409,1.148-4.839,1.715-7.289,1.699-2.449-.015-4.799-.501-7.048-1.46-2.25-.958-4.261-2.285-6.034-3.981-1.773-1.697-3.18-3.638-4.221-5.822-1.085-2.279-1.705-4.653-1.855-7.124-.152-2.47.133-4.87.854-7.204.722-2.331,1.844-4.442,3.367-6.331,1.524-1.888,3.475-3.397,5.852-4.53,2.473-1.178,4.934-1.739,7.384-1.685,2.449.055,4.794.574,7.034,1.555,2.241.982,4.236,2.317,5.985,4.006,1.75,1.688,3.146,3.625,4.186,5.809,1.071,2.248,1.697,4.599,1.881,7.053s-.085,4.849-.806,7.181c-.721,2.333-1.847,4.436-3.378,6.309-1.532,1.872-3.502,3.381-5.911,4.527ZM722.399,882.203c.78,1.638,1.774,3.085,2.983,4.341,1.209,1.257,2.566,2.245,4.072,2.966,1.505.723,3.085,1.102,4.739,1.142,1.654.039,3.332-.347,5.035-1.156,1.733-.826,3.107-1.913,4.12-3.264,1.013-1.348,1.697-2.846,2.054-4.494.358-1.648.427-3.326.205-5.032-.223-1.706-.699-3.331-1.435-4.873-.78-1.639-1.778-3.073-2.996-4.305-1.218-1.233-2.587-2.206-4.108-2.921-1.522-.713-3.11-1.088-4.765-1.128-1.653-.04-3.3.33-4.938,1.109-1.767.842-3.148,1.934-4.145,3.274-.996,1.342-1.677,2.829-2.043,4.46-.365,1.633-.437,3.302-.215,5.008.222,1.707.7,3.331,1.435,4.873Z" fill="#27348b" stroke-width="0"/>
    <path d="M811.497,849.408c-2.317,1.942-4.604,3.187-6.863,3.732-2.257.546-4.441.543-6.552-.009-2.11-.553-4.121-1.514-6.033-2.882-1.913-1.366-3.657-2.992-5.232-4.873l-12.338-14.724,4.621-3.873,12.337,14.723c1.12,1.337,2.328,2.517,3.628,3.54,1.299,1.024,2.659,1.775,4.081,2.255,1.423.478,2.877.581,4.367.308,1.488-.272,2.981-1.036,4.481-2.294,1.556-1.302,2.597-2.661,3.125-4.08.529-1.418.678-2.889.446-4.412-.231-1.521-.732-3.006-1.502-4.449-.769-1.444-1.701-2.821-2.799-4.129l-12.339-14.724,4.623-3.873,12.338,14.723c1.667,1.99,3,4.065,3.996,6.224.997,2.158,1.558,4.323,1.683,6.493.123,2.17-.298,4.299-1.265,6.384-.966,2.088-2.567,4.067-4.804,5.94Z" fill="#27348b" stroke-width="0"/>
    <path d="M848.133,766.165c-.505.026-1.142.187-1.91.481-.771.296-1.575.698-2.413,1.207-.839.509-1.687,1.121-2.545,1.838-.858.715-1.624,1.531-2.299,2.448-1.476,2.005-2.202,3.769-2.178,5.288s.693,2.763,2.004,3.727c.971.714,1.94,1.009,2.91.884.972-.124,2.051-.621,3.24-1.492,1.19-.868,2.596-1.987,4.217-3.355,2.024-1.734,3.933-3.102,5.724-4.103,1.793-1,3.544-1.5,5.257-1.498s3.495.685,5.349,2.049c1.513,1.112,2.606,2.371,3.287,3.777.68,1.406.988,2.88.928,4.426s-.415,3.118-1.063,4.717c-.649,1.598-1.542,3.171-2.682,4.718-1.117,1.519-2.394,2.908-3.831,4.17-1.436,1.262-2.962,2.348-4.58,3.254-1.618.908-3.303,1.623-5.057,2.143l-2.479-5.271c.625-.07,1.422-.299,2.395-.688.972-.39,2-.901,3.086-1.538,1.087-.636,2.171-1.404,3.256-2.309,1.083-.901,2.048-1.927,2.892-3.074,1.412-1.918,2.159-3.632,2.24-5.14s-.517-2.733-1.795-3.673c-.997-.735-2.053-.991-3.161-.771-1.109.222-2.335.799-3.682,1.729-1.345.932-2.874,2.114-4.588,3.547-1.99,1.627-3.809,2.872-5.456,3.736s-3.212,1.258-4.696,1.181c-1.484-.075-3.024-.701-4.622-1.878-1.997-1.47-3.335-3.193-4.012-5.172-.678-1.978-.744-4.068-.198-6.274.545-2.204,1.575-4.339,3.094-6.402,1.013-1.374,2.128-2.574,3.346-3.6,1.218-1.024,2.479-1.885,3.787-2.58,1.306-.694,2.594-1.214,3.865-1.56l2.372,5.058Z" fill="#27348b" stroke-width="0"/>
    <path d="M903.204,711.954l4.85,2.095-10.304,23.854-34.779-15.021,10.112-23.415,4.849,2.095-7.722,17.88,9.944,4.294,6.707-15.528,4.507,1.947-6.707,15.528,10.63,4.591,7.913-18.32Z" fill="#27348b" stroke-width="0"/>
  </g>
</svg>