<?xml version="1.0" encoding="UTF-8"?>
<svg id="a" data-name="Ebene 1" xmlns="http://www.w3.org/2000/svg" width="1200" height="1200" viewBox="0 0 1200 1200">
  <g>
    <path d="M370.785,697.573c0,1.444-.38,2.686-1.14,3.725s-1.761,1.836-3.002,2.394c-1.242.558-2.635.836-4.18.836h-12.882v-26.979h13.908c1.266,0,2.362.336,3.287,1.006.925.672,1.634,1.533,2.128,2.584.494,1.053.741,2.147.741,3.287,0,1.293-.336,2.521-1.007,3.687-.672,1.165-1.628,2.026-2.869,2.584,1.545.456,2.768,1.292,3.667,2.508.899,1.216,1.349,2.673,1.349,4.37ZM353.874,681.195v8.019h7.79c.709,0,1.342-.178,1.9-.533.557-.354,1-.828,1.33-1.424.329-.596.494-1.273.494-2.033,0-.785-.146-1.476-.437-2.071-.292-.595-.703-1.069-1.235-1.425-.532-.354-1.14-.532-1.824-.532h-8.018ZM366.453,696.775c0-.761-.165-1.456-.494-2.09-.33-.634-.767-1.14-1.311-1.521-.545-.38-1.185-.57-1.919-.57h-8.854v8.285h8.588c.76,0,1.438-.196,2.033-.59.595-.393,1.07-.893,1.425-1.5.354-.609.532-1.279.532-2.015Z" fill="#1d4295" stroke-width="0"/>
    <path d="M419.538,700.765v3.763h-18.506v-26.979h18.164v3.762h-13.87v7.714h12.046v3.496h-12.046v8.245h14.212Z" fill="#1d4295" stroke-width="0"/>
    <path d="M457.538,677.548h4.028l10.488,26.979h-4.484l-2.636-7.334h-10.789l-2.648,7.334h-4.484l10.526-26.979ZM463.8,694.04l-4.248-11.818-4.269,11.818h8.517Z" fill="#1d4295" stroke-width="0"/>
    <path d="M499.49,690.81c0-1.646.291-3.262.874-4.846.583-1.582,1.438-3.026,2.565-4.332,1.127-1.305,2.495-2.342,4.104-3.115,1.608-.773,3.439-1.159,5.491-1.159,2.457,0,4.566.551,6.327,1.653,1.761,1.102,3.072,2.514,3.933,4.236l-3.344,2.242c-.481-1.089-1.108-1.95-1.881-2.584-.773-.633-1.615-1.076-2.527-1.33-.912-.253-1.799-.38-2.66-.38-1.394,0-2.622.285-3.686.854-1.064.57-1.957,1.324-2.679,2.262-.722.938-1.261,1.988-1.615,3.154-.355,1.165-.532,2.33-.532,3.496,0,1.316.209,2.57.627,3.762s1.013,2.248,1.786,3.173c.772.925,1.685,1.653,2.736,2.185,1.051.532,2.21.799,3.477.799.886,0,1.798-.152,2.736-.457.937-.304,1.805-.785,2.603-1.443s1.425-1.494,1.881-2.508l3.534,1.976c-.532,1.343-1.387,2.483-2.565,3.42-1.178.938-2.502,1.647-3.971,2.128-1.469.482-2.926.723-4.37.723-1.849,0-3.56-.399-5.13-1.197-1.571-.799-2.933-1.862-4.085-3.192-1.153-1.329-2.046-2.824-2.679-4.483s-.95-3.338-.95-5.035Z" fill="#1d4295" stroke-width="0"/>
    <path d="M575.147,677.548v26.979h-4.256v-11.894h-13.604v11.894h-4.294v-26.979h4.294v11.285h13.604v-11.285h4.256Z" fill="#1d4295" stroke-width="0"/>
    <path d="M664.371,677.548v26.979h-4.256v-11.894h-13.604v11.894h-4.294v-26.979h4.294v11.285h13.604v-11.285h4.256Z" fill="#1d4295" stroke-width="0"/>
    <path d="M707.424,704.718c-1.9,0-3.636-.381-5.206-1.141-1.571-.76-2.933-1.791-4.085-3.097-1.153-1.305-2.039-2.774-2.66-4.408s-.931-3.312-.931-5.035c0-1.798.329-3.515.988-5.149.658-1.633,1.576-3.09,2.755-4.369,1.178-1.279,2.546-2.293,4.104-3.04,1.559-.747,3.274-1.121,5.149-1.121,1.95,0,3.705.394,5.263,1.178,1.559.786,2.907,1.837,4.047,3.154,1.141,1.317,2.015,2.787,2.622,4.407.608,1.622.912,3.295.912,5.017,0,1.773-.317,3.478-.95,5.11-.633,1.635-1.539,3.092-2.717,4.371s-2.546,2.286-4.104,3.021c-1.559.735-3.287,1.103-5.188,1.103ZM698.913,691.037c0,1.292.195,2.527.589,3.705.393,1.179.963,2.229,1.71,3.154s1.646,1.653,2.698,2.185c1.051.532,2.248.799,3.591.799,1.368,0,2.584-.279,3.647-.836,1.064-.558,1.964-1.312,2.698-2.262.734-.949,1.292-2.008,1.672-3.173s.57-2.356.57-3.572c0-1.292-.203-2.521-.608-3.686s-.987-2.21-1.748-3.136c-.76-.924-1.666-1.652-2.717-2.185s-2.223-.798-3.515-.798c-1.394,0-2.616.279-3.667.836-1.052.558-1.944,1.305-2.679,2.242-.735.938-1.292,1.988-1.673,3.154-.38,1.165-.569,2.355-.569,3.571Z" fill="#1d4295" stroke-width="0"/>
    <path d="M761.878,704.718c-2.153,0-3.971-.367-5.453-1.103-1.482-.734-2.673-1.735-3.572-3.002s-1.558-2.71-1.976-4.332c-.418-1.62-.627-3.306-.627-5.054v-13.68h4.294v13.68c0,1.241.12,2.438.361,3.591.24,1.153.639,2.185,1.196,3.097s1.305,1.635,2.242,2.166c.938.532,2.103.799,3.496.799,1.444,0,2.635-.267,3.572-.799.937-.531,1.69-1.266,2.261-2.203s.975-1.977,1.216-3.117c.24-1.139.361-2.317.361-3.533v-13.68h4.294v13.68c0,1.85-.222,3.591-.665,5.225-.443,1.635-1.128,3.072-2.052,4.312-.926,1.242-2.128,2.211-3.61,2.908s-3.262,1.045-5.339,1.045Z" fill="#1d4295" stroke-width="0"/>
    <path d="M820.969,683.893c-.228-.279-.589-.576-1.083-.893s-1.064-.608-1.71-.875c-.646-.266-1.355-.494-2.128-.684-.773-.189-1.564-.285-2.375-.285-1.773,0-3.091.328-3.952.983s-1.292,1.563-1.292,2.724c0,.856.24,1.537.722,2.041.481.505,1.223.914,2.224,1.229,1,.316,2.235.65,3.705,1.003,1.849.429,3.438.946,4.769,1.551s2.356,1.399,3.078,2.382c.722.984,1.083,2.295,1.083,3.934,0,1.336-.26,2.496-.779,3.479-.52.984-1.234,1.784-2.146,2.402-.912.617-1.964,1.077-3.154,1.38-1.191.302-2.47.454-3.838.454-1.343,0-2.679-.146-4.009-.438s-2.598-.709-3.8-1.254c-1.204-.545-2.325-1.209-3.363-1.995l1.976-3.647c.305.329.772.689,1.406,1.082.633.394,1.361.768,2.185,1.121.823.355,1.723.652,2.698.894.975.241,1.97.36,2.983.36,1.696,0,2.995-.294,3.895-.885.899-.59,1.35-1.449,1.35-2.58,0-.883-.299-1.596-.894-2.138-.596-.542-1.443-1.003-2.546-1.382-1.102-.377-2.426-.756-3.971-1.135-1.773-.454-3.256-.971-4.446-1.551-1.191-.58-2.077-1.312-2.66-2.195s-.874-2.031-.874-3.443c0-1.767.424-3.262,1.273-4.485.849-1.224,2.02-2.144,3.515-2.763,1.494-.617,3.154-.927,4.979-.927,1.216,0,2.375.133,3.477.399,1.103.266,2.128.627,3.078,1.082.95.457,1.792.977,2.527,1.559l-1.9,3.496Z" fill="#1d4295" stroke-width="0"/>
    <path d="M872.535,700.765v3.763h-18.506v-26.979h18.164v3.762h-13.87v7.714h12.046v3.496h-12.046v8.245h14.212Z" fill="#1d4295" stroke-width="0"/>
  </g>
  <g>
    <g>
      <path d="M1097.531,663.146c-6.727,0-11.708-4.675-16.981-9.623-5.896-5.533-11.992-11.255-21.21-11.255-11.805,0-16.98,5.573-21.985,10.962-4.486,4.83-9.124,9.825-18.25,9.825-9.473,0-14.142-5.186-18.658-10.2-4.832-5.366-9.396-10.435-19.694-10.435-14.389,0-24.696,12.516-24.79,12.647h0c.416-2.924,1.781-6.946,3.249-9.294,2.615-4.185,9.907-14.757,21.2-14.757,6.919,0,12.029,4.687,17.439,9.649,5.944,5.452,12.091,11.09,21.254,11.09,10.176,0,14.882-4.927,19.865-10.144,4.904-5.134,9.975-10.443,20.37-10.443,7.613,0,13.088,5.122,18.382,10.076,5.571,5.212,11.331,10.602,19.808,10.602,12.75,0,17.275-6.559,19.836-9.251,2.074-2.18,4.069-5.726,4.069-5.726,0,0-.75,4.788-1.688,7.431-.366,1.032-1.955,5.384-6.168,10.299-4.861,5.672-10.26,8.548-16.049,8.548Z" fill="#27348b" stroke-width="0"/>
      <path d="M955.965,655.068c.364-2.556,1.148-4.243,2.083-5.746,1.064-1.712,10.691-17.305,22.366-17.305,13.942,0,20.727,20.739,38.693,20.739,20.99,0,20.093-20.587,40.234-20.587,14.95,0,21.036,20.678,38.19,20.678,14.889,0,21.722-11.985,22.972-13.405.02.756-.327,2.085-.93,3.553-1.511,3.674-9.148,19.152-22.042,19.152-13.608,0-20.213-20.878-38.19-20.878-23.16,0-21.803,20.787-40.234,20.787-18.594,0-17.471-20.634-38.352-20.634-15.071,0-24.79,13.647-24.79,13.647Z" fill="#27348b" stroke-width="0"/>
    </g>
    <path d="M78.564,606.377c0-8.152,6.289-17.003,21.428-17.003-2.329,3.959-3.494,9.317-3.494,14.907,0,13.742,9.55,23.524,22.826,23.524,9.084,0,18.633-5.823,18.633-17.701,0-27.251-58.229-28.416-58.229-56.366,0-16.072,16.304-21.428,31.91-21.428,13.742,0,25.854,3.726,35.17,3.726,3.727,0,6.522-.465,8.851-2.562-1.165,9.55-6.056,16.537-14.208,16.537-13.975,0-19.099-15.139-31.91-15.139-6.755,0-12.112,4.891-12.112,11.878,0,25.155,58.229,27.484,58.229,57.996,0,17.469-19.099,25.389-37.034,25.389-24.223,0-40.062-10.016-40.062-23.758Z" fill="#27348b" stroke-width="0"/>
    <path d="M167.306,582.853c0-35.87,25.854-50.543,48.214-50.543,17.003,0,31.91,8.152,31.91,22.592,0,28.416-41.925,25.854-53.571,55.202,5.823,7.919,14.674,12.345,25.388,12.345,15.838,0,23.292-11.18,27.018-18.401-1.63,10.249-9.316,26.087-32.841,26.087-29.115,0-46.118-21.661-46.118-47.282ZM229.727,550.245c0-10.481-6.056-15.605-14.441-15.605-12.81,0-29.813,13.975-29.813,47.282,0,10.481,2.562,19.099,6.755,25.621,8.851-27.019,37.499-30.512,37.499-57.298Z" fill="#27348b" stroke-width="0"/>
    <path d="M261.403,606.377c0-33.54,59.394-31.211,69.409-57.065v-2.329c0-7.22-2.329-11.413-7.919-11.413-9.55,0-17.935,14.674-32.143,14.674-11.646,0-18.167-7.453-18.167-16.77,4.891,2.097,9.55,2.795,15.14,2.795,10.947,0,18.167-3.959,28.649-3.959,14.674,0,32.143,6.055,32.143,41.459v31.676c0,11.879,2.562,19.566,5.357,23.525-12.112,0-23.059-2.329-23.059-20.963v-13.276c-2.795,10.714-13.742,35.404-39.363,35.404-14.907,0-30.046-6.988-30.046-23.758ZM330.812,584.716v-30.279c-8.152,20.963-51.242,24.224-51.242,50.776,0,13.043,10.947,16.537,17.469,16.537,20.497,0,32.142-21.895,33.773-37.034Z" fill="#27348b" stroke-width="0"/>
    <path d="M428.632,626.408c-4.891,0-8.152.932-10.714,2.562,2.795-13.276,3.494-23.99,3.494-48.913v-44.255c0-6.987-.466-18.633-4.658-23.757,10.248-2.329,20.497-8.385,25.388-15.838-2.329,14.907-2.795,25.854-2.795,52.407v22.826c1.863-10.714,10.015-39.129,36.568-39.129,27.484,0,38.897,23.757,38.897,47.748,0,37.034-23.758,50.078-47.981,50.078-16.77,0-28.882-3.727-38.199-3.727ZM496.411,580.058c0-23.757-9.317-39.829-25.621-39.829-19.332,0-28.649,23.99-31.444,43.788v31.444c10.481,2.097,19.798,11.646,32.841,11.646,8.385,0,24.223-5.823,24.223-47.049Z" fill="#27348b" stroke-width="0"/>
    <path d="M529.949,603.815v-30.744c0-6.988-.466-18.634-4.658-23.758,10.248-2.329,20.497-8.385,25.388-15.838-1.863,12.578-2.795,22.128-2.795,40.295,3.261-20.031,9.084-41.459,27.717-41.459,11.646,0,17.702,3.726,27.251,3.726,3.96,0,6.755-.465,9.084-2.562-1.165,9.55-5.59,16.537-14.208,16.537-11.646,0-18.167-7.919-27.95-7.919-14.208,0-19.565,27.717-21.894,48.446v13.276c0,10.249,1.165,20.963,4.658,25.155h-27.251c3.494-4.193,4.658-14.907,4.658-25.155Z" fill="#27348b" stroke-width="0"/>
    <path d="M610.773,582.853c0-35.87,25.854-50.543,48.214-50.543,17.003,0,31.91,8.152,31.91,22.592,0,28.416-41.925,25.854-53.571,55.202,5.823,7.919,14.674,12.345,25.388,12.345,15.838,0,23.292-11.18,27.018-18.401-1.63,10.249-9.316,26.087-32.841,26.087-29.115,0-46.118-21.661-46.118-47.282ZM673.194,550.245c0-10.481-6.056-15.605-14.441-15.605-12.81,0-29.813,13.975-29.813,47.282,0,10.481,2.562,19.099,6.755,25.621,8.851-27.019,37.499-30.512,37.499-57.298Z" fill="#27348b" stroke-width="0"/>
    <path d="M702.542,582.853c0-35.87,25.854-50.543,48.214-50.543,17.003,0,31.91,8.152,31.91,22.592,0,28.416-41.925,25.854-53.571,55.202,5.823,7.919,14.674,12.345,25.388,12.345,15.838,0,23.292-11.18,27.018-18.401-1.63,10.249-9.316,26.087-32.841,26.087-29.115,0-46.118-21.661-46.118-47.282ZM764.964,550.245c0-10.481-6.056-15.605-14.441-15.605-12.81,0-29.813,13.975-29.813,47.282,0,10.481,2.562,19.099,6.755,25.621,8.851-27.019,37.499-30.512,37.499-57.298Z" fill="#27348b" stroke-width="0"/>
    <path d="M849.514,536.27c-14.441,1.63-27.018,14.208-39.829,14.208-12.345,0-17.935-8.618-18.4-17.003,4.193,2.097,9.783,3.028,15.14,3.028,11.18,0,21.894-3.028,44.72-3.028h21.428l-58.462,93.167h1.165c35.403,0,48.68-5.823,56.133-12.345l3.028,14.674h-83.152l58.229-92.701Z" fill="#27348b" stroke-width="0"/>
    <path d="M924.745,630.136c-29.115,0-46.118-21.661-46.118-47.282,0-35.87,25.854-50.543,48.214-50.543,17.003,0,31.91,8.152,31.91,22.592,0,28.416-41.925,25.854-53.571,55.202,5.823,7.919,14.683,12.789,25.388,12.345,12.19-.506,20.182-9.407,23.067-12.816,6.143-7.257,16.619-21.273,26.77-21.355h.119c6.88,0,11.973,4.682,17.365,9.64,5.936,5.457,12.074,11.1,21.217,11.1,10.176,0,14.882-4.927,19.865-10.144,4.904-5.134,9.975-10.443,20.37-10.443,7.613,0,13.088,5.122,18.382,10.076,5.571,5.212,11.331,10.602,19.808,10.602,12.75,0,19.797-9.869,20.93-11.033,1.342-1.379,2.975-3.943,2.975-3.943,0,0-.635,4.975-2.081,8.167-1.804,3.985-9.236,18.109-21.824,18.109-6.727,0-11.708-4.674-16.981-9.623-5.896-5.532-11.992-11.254-21.21-11.254-11.805,0-16.98,5.572-21.985,10.962-4.485,4.83-9.124,9.824-18.25,9.824-9.473,0-14.142-5.186-18.658-10.199-4.832-5.366-9.396-10.435-19.694-10.435-9.137,0-16.42,4.682-20.605,9.427-4.185,4.745-16.037,21.025-35.404,21.025ZM941.049,550.245c0-10.481-6.056-15.605-14.441-15.605-12.81,0-29.813,13.975-29.813,47.282,0,10.481,2.562,19.099,6.755,25.621,8.851-27.019,37.499-30.512,37.499-57.298Z" fill="#27348b" stroke-width="0"/>
  </g>
</svg>