<?xml version="1.0" encoding="UTF-8"?>
<svg id="a" data-name="Ebene 1" xmlns="http://www.w3.org/2000/svg" width="1200" height="1200" viewBox="0 0 1200 1200">
  <rect x="0" y="406.292" width="1200" height="387.415" fill="#27348b" stroke-width="0"/>
  <g>
    <path d="M370.785,694.572c0,1.445-.38,2.686-1.14,3.725s-1.761,1.837-3.002,2.395c-1.242.557-2.635.836-4.18.836h-12.882v-26.98h13.908c1.266,0,2.362.336,3.287,1.007.925.672,1.634,1.533,2.128,2.584.494,1.052.741,2.147.741,3.287,0,1.292-.336,2.521-1.007,3.687-.672,1.165-1.628,2.026-2.869,2.584,1.545.455,2.768,1.291,3.667,2.508.899,1.216,1.349,2.673,1.349,4.369ZM353.874,678.195v8.018h7.79c.709,0,1.342-.177,1.9-.532.557-.354,1-.829,1.33-1.425.329-.595.494-1.273.494-2.033,0-.785-.146-1.475-.437-2.07-.292-.596-.703-1.07-1.235-1.426-.532-.354-1.14-.531-1.824-.531h-8.018ZM366.453,693.775c0-.761-.165-1.457-.494-2.09-.33-.634-.767-1.141-1.311-1.521-.545-.38-1.185-.57-1.919-.57h-8.854v8.284h8.588c.76,0,1.438-.195,2.033-.589.595-.393,1.07-.894,1.425-1.501.354-.608.532-1.279.532-2.014Z" fill="#fff" stroke-width="0"/>
    <path d="M419.538,697.765v3.763h-18.506v-26.98h18.164v3.762h-13.87v7.715h12.046v3.496h-12.046v8.245h14.212Z" fill="#fff" stroke-width="0"/>
    <path d="M457.538,674.547h4.028l10.488,26.98h-4.484l-2.636-7.334h-10.789l-2.648,7.334h-4.484l10.526-26.98ZM463.8,691.039l-4.248-11.818-4.269,11.818h8.517Z" fill="#fff" stroke-width="0"/>
    <path d="M499.49,687.809c0-1.646.291-3.262.874-4.845.583-1.583,1.438-3.026,2.565-4.332,1.127-1.305,2.495-2.343,4.104-3.116,1.608-.772,3.439-1.158,5.491-1.158,2.457,0,4.566.551,6.327,1.652s3.072,2.515,3.933,4.237l-3.344,2.241c-.481-1.088-1.108-1.949-1.881-2.584-.773-.633-1.615-1.076-2.527-1.33-.912-.252-1.799-.379-2.66-.379-1.394,0-2.622.285-3.686.854s-1.957,1.324-2.679,2.261c-.722.938-1.261,1.989-1.615,3.154-.355,1.166-.532,2.331-.532,3.496,0,1.317.209,2.571.627,3.762.418,1.191,1.013,2.248,1.786,3.174.772.924,1.685,1.652,2.736,2.185,1.051.532,2.21.798,3.477.798.886,0,1.798-.152,2.736-.456.937-.304,1.805-.785,2.603-1.444.798-.658,1.425-1.494,1.881-2.508l3.534,1.977c-.532,1.343-1.387,2.482-2.565,3.42-1.178.938-2.502,1.646-3.971,2.127-1.469.482-2.926.723-4.37.723-1.849,0-3.56-.398-5.13-1.197-1.571-.798-2.933-1.861-4.085-3.191-1.153-1.33-2.046-2.824-2.679-4.484-.633-1.658-.95-3.338-.95-5.035Z" fill="#fff" stroke-width="0"/>
    <path d="M575.147,674.547v26.98h-4.256v-11.895h-13.604v11.895h-4.294v-26.98h4.294v11.286h13.604v-11.286h4.256Z" fill="#fff" stroke-width="0"/>
    <path d="M664.371,674.547v26.98h-4.256v-11.895h-13.604v11.895h-4.294v-26.98h4.294v11.286h13.604v-11.286h4.256Z" fill="#fff" stroke-width="0"/>
    <path d="M707.424,701.717c-1.9,0-3.636-.38-5.206-1.141-1.571-.76-2.933-1.791-4.085-3.096-1.153-1.305-2.039-2.774-2.66-4.408-.621-1.635-.931-3.312-.931-5.035,0-1.799.329-3.516.988-5.149.658-1.634,1.576-3.091,2.755-4.37,1.178-1.279,2.546-2.292,4.104-3.039,1.559-.748,3.274-1.121,5.149-1.121,1.95,0,3.705.393,5.263,1.178,1.559.785,2.907,1.837,4.047,3.154,1.141,1.316,2.015,2.787,2.622,4.407.608,1.622.912,3.294.912,5.017,0,1.773-.317,3.477-.95,5.11s-1.539,3.091-2.717,4.37-2.546,2.287-4.104,3.021c-1.559.734-3.287,1.102-5.188,1.102ZM698.913,688.037c0,1.291.195,2.527.589,3.705.393,1.178.963,2.229,1.71,3.154.747.924,1.646,1.652,2.698,2.185,1.051.532,2.248.798,3.591.798,1.368,0,2.584-.278,3.647-.836,1.064-.557,1.964-1.311,2.698-2.262.734-.949,1.292-2.007,1.672-3.172.38-1.166.57-2.356.57-3.572,0-1.293-.203-2.521-.608-3.686-.405-1.166-.987-2.211-1.748-3.136-.76-.925-1.666-1.653-2.717-2.185-1.051-.532-2.223-.799-3.515-.799-1.394,0-2.616.279-3.667.836-1.052.559-1.944,1.306-2.679,2.242-.735.938-1.292,1.989-1.673,3.154-.38,1.166-.569,2.355-.569,3.572Z" fill="#fff" stroke-width="0"/>
    <path d="M761.878,701.717c-2.153,0-3.971-.367-5.453-1.102s-2.673-1.735-3.572-3.002c-.899-1.268-1.558-2.711-1.976-4.332s-.627-3.307-.627-5.055v-13.68h4.294v13.68c0,1.242.12,2.439.361,3.592.24,1.152.639,2.185,1.196,3.097.558.911,1.305,1.634,2.242,2.166s2.103.798,3.496.798c1.444,0,2.635-.266,3.572-.798.937-.532,1.69-1.267,2.261-2.204s.975-1.977,1.216-3.116c.24-1.14.361-2.317.361-3.534v-13.68h4.294v13.68c0,1.85-.222,3.592-.665,5.225-.443,1.635-1.128,3.072-2.052,4.313-.926,1.241-2.128,2.211-3.61,2.907-1.482.697-3.262,1.045-5.339,1.045Z" fill="#fff" stroke-width="0"/>
    <path d="M820.969,680.893c-.228-.278-.589-.576-1.083-.893s-1.064-.607-1.71-.874c-.646-.267-1.355-.494-2.128-.685-.773-.189-1.564-.285-2.375-.285-1.773,0-3.091.328-3.952.984-.861.654-1.292,1.562-1.292,2.723,0,.857.24,1.537.722,2.041.481.506,1.223.915,2.224,1.229,1,.315,2.235.649,3.705,1.003,1.849.428,3.438.945,4.769,1.551,1.33.604,2.356,1.398,3.078,2.382s1.083,2.294,1.083,3.933c0,1.337-.26,2.496-.779,3.479s-1.234,1.784-2.146,2.401-1.964,1.078-3.154,1.381c-1.191.302-2.47.453-3.838.453-1.343,0-2.679-.146-4.009-.438s-2.598-.709-3.8-1.254c-1.204-.544-2.325-1.209-3.363-1.994l1.976-3.648c.305.33.772.69,1.406,1.083.633.394,1.361.767,2.185,1.121s1.723.652,2.698.894c.975.24,1.97.36,2.983.36,1.696,0,2.995-.294,3.895-.885.899-.59,1.35-1.45,1.35-2.581,0-.883-.299-1.595-.894-2.137-.596-.543-1.443-1.003-2.546-1.382-1.102-.378-2.426-.757-3.971-1.136-1.773-.453-3.256-.971-4.446-1.551-1.191-.58-2.077-1.312-2.66-2.195-.583-.883-.874-2.03-.874-3.443,0-1.766.424-3.262,1.273-4.484.849-1.224,2.02-2.145,3.515-2.763,1.494-.618,3.154-.927,4.979-.927,1.216,0,2.375.133,3.477.398,1.103.266,2.128.627,3.078,1.083s1.792.976,2.527,1.558l-1.9,3.496Z" fill="#fff" stroke-width="0"/>
    <path d="M872.535,697.765v3.763h-18.506v-26.98h18.164v3.762h-13.87v7.715h12.046v3.496h-12.046v8.245h14.212Z" fill="#fff" stroke-width="0"/>
  </g>
  <g>
    <g>
      <path d="M1097.531,660.146c-6.727,0-11.708-4.675-16.981-9.623-5.896-5.533-11.992-11.255-21.21-11.255-11.805,0-16.98,5.573-21.985,10.962-4.486,4.83-9.124,9.825-18.25,9.825-9.473,0-14.142-5.186-18.658-10.2-4.832-5.366-9.396-10.435-19.694-10.435-14.389,0-24.696,12.516-24.79,12.647h0c.416-2.924,1.781-6.946,3.249-9.294,2.615-4.185,9.907-14.757,21.2-14.757,6.919,0,12.029,4.687,17.439,9.649,5.944,5.452,12.091,11.09,21.254,11.09,10.176,0,14.882-4.927,19.865-10.144,4.904-5.134,9.975-10.443,20.37-10.443,7.613,0,13.088,5.122,18.382,10.076,5.571,5.212,11.331,10.602,19.808,10.602,12.75,0,17.275-6.559,19.836-9.251,2.074-2.18,4.069-5.726,4.069-5.726,0,0-.75,4.788-1.688,7.431-.366,1.032-1.955,5.384-6.168,10.299-4.861,5.672-10.26,8.548-16.049,8.548Z" fill="#fff" stroke-width="0"/>
      <path d="M955.965,652.068c.364-2.556,1.148-4.243,2.083-5.746,1.064-1.712,10.691-17.305,22.366-17.305,13.942,0,20.727,20.739,38.693,20.739,20.99,0,20.093-20.587,40.234-20.587,14.95,0,21.036,20.678,38.19,20.678,14.889,0,21.722-11.985,22.972-13.405.02.756-.327,2.085-.93,3.553-1.511,3.674-9.148,19.152-22.042,19.152-13.608,0-20.213-20.878-38.19-20.878-23.16,0-21.803,20.787-40.234,20.787-18.594,0-17.471-20.634-38.352-20.634-15.071,0-24.79,13.647-24.79,13.647Z" fill="#fff" stroke-width="0"/>
    </g>
    <path d="M78.564,603.377c0-8.152,6.289-17.003,21.428-17.003-2.329,3.959-3.494,9.317-3.494,14.907,0,13.742,9.55,23.524,22.826,23.524,9.084,0,18.633-5.823,18.633-17.701,0-27.251-58.229-28.416-58.229-56.366,0-16.072,16.304-21.428,31.91-21.428,13.742,0,25.854,3.726,35.17,3.726,3.727,0,6.522-.465,8.851-2.562-1.165,9.55-6.056,16.537-14.208,16.537-13.975,0-19.099-15.139-31.91-15.139-6.755,0-12.112,4.891-12.112,11.878,0,25.155,58.229,27.484,58.229,57.996,0,17.469-19.099,25.389-37.034,25.389-24.223,0-40.062-10.016-40.062-23.758Z" fill="#fff" stroke-width="0"/>
    <path d="M167.306,579.853c0-35.87,25.854-50.543,48.214-50.543,17.003,0,31.91,8.152,31.91,22.592,0,28.416-41.925,25.854-53.571,55.202,5.823,7.919,14.674,12.345,25.388,12.345,15.838,0,23.292-11.18,27.018-18.401-1.63,10.249-9.316,26.087-32.841,26.087-29.115,0-46.118-21.661-46.118-47.282ZM229.727,547.245c0-10.481-6.056-15.605-14.441-15.605-12.81,0-29.813,13.975-29.813,47.282,0,10.481,2.562,19.099,6.755,25.621,8.851-27.019,37.499-30.512,37.499-57.298Z" fill="#fff" stroke-width="0"/>
    <path d="M261.403,603.377c0-33.54,59.394-31.211,69.409-57.065v-2.329c0-7.22-2.329-11.413-7.919-11.413-9.55,0-17.935,14.674-32.143,14.674-11.646,0-18.167-7.453-18.167-16.77,4.891,2.097,9.55,2.795,15.14,2.795,10.947,0,18.167-3.959,28.649-3.959,14.674,0,32.143,6.055,32.143,41.459v31.676c0,11.879,2.562,19.566,5.357,23.525-12.112,0-23.059-2.329-23.059-20.963v-13.276c-2.795,10.714-13.742,35.404-39.363,35.404-14.907,0-30.046-6.988-30.046-23.758ZM330.812,581.716v-30.279c-8.152,20.963-51.242,24.224-51.242,50.776,0,13.043,10.947,16.537,17.469,16.537,20.497,0,32.142-21.895,33.773-37.034Z" fill="#fff" stroke-width="0"/>
    <path d="M428.632,623.408c-4.891,0-8.152.932-10.714,2.562,2.795-13.276,3.494-23.99,3.494-48.913v-44.255c0-6.987-.466-18.633-4.658-23.757,10.248-2.329,20.497-8.385,25.388-15.838-2.329,14.907-2.795,25.854-2.795,52.407v22.826c1.863-10.714,10.015-39.129,36.568-39.129,27.484,0,38.897,23.757,38.897,47.748,0,37.034-23.758,50.078-47.981,50.078-16.77,0-28.882-3.727-38.199-3.727ZM496.411,577.058c0-23.757-9.317-39.829-25.621-39.829-19.332,0-28.649,23.99-31.444,43.788v31.444c10.481,2.097,19.798,11.646,32.841,11.646,8.385,0,24.223-5.823,24.223-47.049Z" fill="#fff" stroke-width="0"/>
    <path d="M529.949,600.815v-30.744c0-6.988-.466-18.634-4.658-23.758,10.248-2.329,20.497-8.385,25.388-15.838-1.863,12.578-2.795,22.128-2.795,40.295,3.261-20.031,9.084-41.459,27.717-41.459,11.646,0,17.702,3.726,27.251,3.726,3.96,0,6.755-.465,9.084-2.562-1.165,9.55-5.59,16.537-14.208,16.537-11.646,0-18.167-7.919-27.95-7.919-14.208,0-19.565,27.717-21.894,48.446v13.276c0,10.249,1.165,20.963,4.658,25.155h-27.251c3.494-4.193,4.658-14.907,4.658-25.155Z" fill="#fff" stroke-width="0"/>
    <path d="M610.773,579.853c0-35.87,25.854-50.543,48.214-50.543,17.003,0,31.91,8.152,31.91,22.592,0,28.416-41.925,25.854-53.571,55.202,5.823,7.919,14.674,12.345,25.388,12.345,15.838,0,23.292-11.18,27.018-18.401-1.63,10.249-9.316,26.087-32.841,26.087-29.115,0-46.118-21.661-46.118-47.282ZM673.194,547.245c0-10.481-6.056-15.605-14.441-15.605-12.81,0-29.813,13.975-29.813,47.282,0,10.481,2.562,19.099,6.755,25.621,8.851-27.019,37.499-30.512,37.499-57.298Z" fill="#fff" stroke-width="0"/>
    <path d="M702.542,579.853c0-35.87,25.854-50.543,48.214-50.543,17.003,0,31.91,8.152,31.91,22.592,0,28.416-41.925,25.854-53.571,55.202,5.823,7.919,14.674,12.345,25.388,12.345,15.838,0,23.292-11.18,27.018-18.401-1.63,10.249-9.316,26.087-32.841,26.087-29.115,0-46.118-21.661-46.118-47.282ZM764.964,547.245c0-10.481-6.056-15.605-14.441-15.605-12.81,0-29.813,13.975-29.813,47.282,0,10.481,2.562,19.099,6.755,25.621,8.851-27.019,37.499-30.512,37.499-57.298Z" fill="#fff" stroke-width="0"/>
    <path d="M849.514,533.27c-14.441,1.63-27.018,14.208-39.829,14.208-12.345,0-17.935-8.618-18.4-17.003,4.193,2.097,9.783,3.028,15.14,3.028,11.18,0,21.894-3.028,44.72-3.028h21.428l-58.462,93.167h1.165c35.403,0,48.68-5.823,56.133-12.345l3.028,14.674h-83.152l58.229-92.701Z" fill="#fff" stroke-width="0"/>
    <path d="M924.745,627.136c-29.115,0-46.118-21.661-46.118-47.282,0-35.87,25.854-50.543,48.214-50.543,17.003,0,31.91,8.152,31.91,22.592,0,28.416-41.925,25.854-53.571,55.202,5.823,7.919,14.683,12.789,25.388,12.345,12.19-.506,20.182-9.407,23.067-12.816,6.143-7.257,16.619-21.273,26.77-21.355h.119c6.88,0,11.973,4.682,17.365,9.64,5.936,5.457,12.074,11.1,21.217,11.1,10.176,0,14.882-4.927,19.865-10.144,4.904-5.134,9.975-10.443,20.37-10.443,7.613,0,13.088,5.122,18.382,10.076,5.571,5.212,11.331,10.602,19.808,10.602,12.75,0,19.797-9.869,20.93-11.033,1.342-1.379,2.975-3.943,2.975-3.943,0,0-.635,4.975-2.081,8.167-1.804,3.985-9.236,18.109-21.824,18.109-6.727,0-11.708-4.674-16.981-9.623-5.896-5.532-11.992-11.254-21.21-11.254-11.805,0-16.98,5.572-21.985,10.962-4.485,4.83-9.124,9.824-18.25,9.824-9.473,0-14.142-5.186-18.658-10.199-4.832-5.366-9.396-10.435-19.694-10.435-9.137,0-16.42,4.682-20.605,9.427-4.185,4.745-16.037,21.025-35.404,21.025ZM941.049,547.245c0-10.481-6.056-15.605-14.441-15.605-12.81,0-29.813,13.975-29.813,47.282,0,10.481,2.562,19.099,6.755,25.621,8.851-27.019,37.499-30.512,37.499-57.298Z" fill="#fff" stroke-width="0"/>
  </g>
  <rect x="20.039" y="427.852" width="1159.922" height="344.296" fill="none" stroke="#fff" stroke-miterlimit="10" stroke-width="5"/>
</svg>